<svg width="18" height="20" viewBox="0 0 18 20" fill="none" xmlns="http://www.w3.org/2000/svg">
<path d="M14 0.949219C14 0.535005 13.6642 0.199219 13.25 0.199219C12.8358 0.199219 12.5 0.535005 12.5 0.949219V2H5.5V0.949219C5.5 0.535005 5.16421 0.199219 4.75 0.199219C4.33579 0.199219 4 0.535005 4 0.949219V2H2.75C1.23122 2 0 3.23122 0 4.75V17.25C0 18.7688 1.23122 20 2.75 20H6.5C6.91421 20 7.25 19.6642 7.25 19.25C7.25 18.8358 6.91421 18.5 6.5 18.5H2.75C2.05964 18.5 1.5 17.9404 1.5 17.25V4.75C1.5 4.05964 2.05964 3.5 2.75 3.5H4V4.44922C4 4.86343 4.33579 5.19922 4.75 5.19922C5.16421 5.19922 5.5 4.86343 5.5 4.44922V3.5H12.5V4.44922C12.5 4.86343 12.8358 5.19922 13.25 5.19922C13.6642 5.19922 14 4.86343 14 4.44922V3.5H15.25C15.9404 3.5 16.5 4.05964 16.5 4.75V8.5C16.5 8.91421 16.8358 9.25 17.25 9.25C17.6642 9.25 18 8.91421 18 8.5V4.75C18 3.23122 16.7688 2 15.25 2H14V0.949219Z" fill="#003CA0"/>
<path d="M12.75 12.1906C13.1366 12.1906 13.45 12.504 13.45 12.8906V14.4614L14.6129 15.6243C14.8863 15.8977 14.8863 16.3409 14.6129 16.6143C14.3395 16.8876 13.8963 16.8876 13.6229 16.6143L12.255 15.2464C12.1237 15.1151 12.05 14.937 12.05 14.7514V12.8906C12.05 12.504 12.3634 12.1906 12.75 12.1906Z" fill="#003CA0"/>
<path fill-rule="evenodd" clip-rule="evenodd" d="M7.55 14.75C7.55 11.8781 9.87812 9.55 12.75 9.55C15.6219 9.55 17.95 11.8781 17.95 14.75C17.95 17.6219 15.6219 19.95 12.75 19.95C9.87812 19.95 7.55 17.6219 7.55 14.75ZM12.75 10.95C10.6513 10.95 8.95 12.6513 8.95 14.75C8.95 16.8487 10.6513 18.55 12.75 18.55C14.8487 18.55 16.55 16.8487 16.55 14.75C16.55 12.6513 14.8487 10.95 12.75 10.95Z" fill="#003CA0"/>
</svg>
