<svg width="439" height="191" viewBox="0 0 439 191" fill="none" xmlns="http://www.w3.org/2000/svg">
<path d="M256.435 78.445C256.218 78.5294 256.106 78.7756 256.197 79.0007C256.835 80.6256 257.234 82.3349 257.465 84.0794C257.696 85.8098 257.738 87.5965 257.843 89.3761C258.026 92.9354 258.145 96.4947 258.215 100.054C258.355 107.173 258.208 114.298 257.815 121.41C257.71 123.175 257.626 124.99 257.465 126.72C257.283 128.458 256.94 130.181 256.379 131.82C255.826 133.459 255.027 135.007 254.033 136.414C253.031 137.82 251.819 139.072 250.488 140.184C249.164 141.309 247.679 142.238 246.194 143.23C244.716 144.207 243.224 145.178 241.725 146.128C238.734 148.034 235.708 149.884 232.64 151.671C229.578 153.457 226.468 155.174 223.33 156.834C221.761 157.664 220.185 158.48 218.602 159.282C217.011 160.069 215.442 160.921 213.845 161.582C210.644 162.925 207.148 163.58 203.737 163.052C202.035 162.813 200.361 162.32 198.75 161.673C197.145 161.033 195.583 160.182 193.986 159.394C187.654 156.194 181.426 152.782 175.367 149.082C172.334 147.239 169.343 145.326 166.38 143.377C164.902 142.386 163.402 141.45 162.065 140.346C160.72 139.248 159.494 138.003 158.478 136.611C156.412 133.839 155.305 130.456 154.926 126.988C154.744 125.264 154.674 123.457 154.569 121.684C154.471 119.904 154.394 118.125 154.331 116.352C154.072 109.241 154.079 102.115 154.345 94.9964C154.408 93.2168 154.492 91.4371 154.59 89.6645C154.695 87.8919 154.765 86.0912 154.976 84.3748C155.396 80.914 156.566 77.5517 158.681 74.8154C159.732 73.4508 160.979 72.2338 162.338 71.1506C163.69 70.0673 165.196 69.1318 166.674 68.14C169.637 66.1915 172.635 64.2852 175.668 62.4423C181.727 58.7423 187.962 55.3589 194.294 52.1443C195.892 51.3494 197.44 50.5053 199.058 49.8933C200.676 49.2603 202.357 48.803 204.066 48.592C207.492 48.1418 210.98 48.8593 214.174 50.238C215.765 50.9274 217.348 51.7715 218.938 52.5593C220.521 53.3612 222.097 54.1771 223.666 55.0001C226.804 56.6532 229.908 58.3765 232.976 60.1632C236.044 61.9499 239.077 63.7928 242.075 65.6921C243.574 66.6417 245.066 67.6054 246.551 68.5831C248.043 69.5609 249.515 70.5105 250.838 71.657C251.014 71.8118 251.28 71.7907 251.434 71.6148C251.588 71.439 251.574 71.1646 251.399 71.0099L251.392 71.0029C250.033 69.8 248.513 68.8082 247.042 67.8234C245.564 66.8316 244.072 65.8539 242.58 64.8902C239.588 62.9558 236.555 61.0777 233.487 59.2769C230.412 57.4691 227.302 55.7317 224.157 54.0646C222.587 53.2275 221.004 52.4045 219.421 51.5956C217.824 50.7937 216.276 49.9637 214.602 49.2251C211.295 47.776 207.583 46.9882 203.926 47.4595C202.105 47.6705 200.333 48.1559 198.637 48.8101C196.928 49.4572 195.345 50.3154 193.755 51.0891C187.387 54.2826 181.132 57.7083 175.045 61.4153C171.998 63.2653 168.992 65.1786 166.015 67.1411C164.544 68.1259 163.017 69.0685 161.588 70.215C160.166 71.3475 158.842 72.6348 157.728 74.0909C155.466 77.01 154.219 80.6256 153.785 84.2271C153.561 86.049 153.497 87.8216 153.392 89.6082C153.294 91.3949 153.21 93.1746 153.147 94.9612C152.881 102.101 152.867 109.262 153.133 116.401C153.196 118.188 153.273 119.975 153.371 121.754C153.476 123.548 153.546 125.307 153.736 127.128C154.121 130.737 155.305 134.367 157.511 137.328C158.597 138.812 159.893 140.128 161.301 141.274C162.709 142.442 164.243 143.391 165.714 144.376C168.691 146.339 171.696 148.252 174.736 150.109C180.817 153.83 187.079 157.256 193.433 160.463C195.023 161.251 196.592 162.102 198.287 162.785C199.968 163.46 201.734 163.98 203.548 164.241C207.191 164.803 210.945 164.093 214.273 162.686C215.961 161.983 217.516 161.132 219.113 160.344C220.703 159.535 222.286 158.726 223.855 157.889C227.008 156.222 230.125 154.505 233.207 152.705C236.289 150.911 239.329 149.047 242.334 147.134C243.833 146.177 245.333 145.206 246.818 144.222C248.289 143.244 249.823 142.273 251.21 141.084C252.597 139.91 253.879 138.58 254.943 137.082C256.001 135.584 256.842 133.923 257.423 132.179C258.012 130.442 258.355 128.634 258.544 126.833C258.712 125.011 258.782 123.26 258.88 121.466C259.244 114.326 259.363 107.18 259.195 100.033C259.118 96.4595 258.964 92.8932 258.747 89.3269C258.621 87.5472 258.572 85.7605 258.313 83.9598C258.061 82.1661 257.626 80.3864 256.947 78.6912C256.905 78.4661 256.653 78.3606 256.435 78.445Z" fill="white"/>
<path d="M460.174 54.0925C459.957 54.1768 459.846 54.4228 459.937 54.6477C460.572 56.271 460.97 57.9787 461.2 59.7215C461.431 61.4503 461.473 63.2353 461.578 65.0132C461.759 68.5692 461.878 72.1251 461.948 75.681C462.087 82.7928 461.941 89.9117 461.55 97.0165C461.445 98.7804 461.361 100.593 461.2 102.322C461.019 104.058 460.677 105.78 460.118 107.417C459.566 109.055 458.77 110.601 457.779 112.006C456.78 113.412 455.572 114.663 454.245 115.773C452.925 116.897 451.445 117.825 449.964 118.816C448.491 119.793 447.004 120.762 445.509 121.711C442.527 123.616 439.511 125.464 436.452 127.249C433.4 129.034 430.3 130.748 427.171 132.407C425.607 133.236 424.036 134.051 422.457 134.853C420.872 135.64 419.308 136.49 417.716 137.151C414.525 138.493 411.04 139.146 407.639 138.619C405.942 138.38 404.273 137.888 402.667 137.242C401.068 136.602 399.511 135.752 397.918 134.965C391.606 131.767 385.397 128.359 379.357 124.663C376.333 122.821 373.351 120.91 370.397 118.963C368.924 117.972 367.43 117.038 366.096 115.934C364.755 114.838 363.533 113.594 362.52 112.203C360.46 109.434 359.357 106.054 358.98 102.589C358.798 100.868 358.728 99.0615 358.624 97.2905C358.526 95.5126 358.449 93.7346 358.386 91.9637C358.128 84.8589 358.135 77.74 358.4 70.6282C358.463 68.8503 358.547 67.0723 358.645 65.3014C358.749 63.5304 358.819 61.7314 359.029 60.0167C359.448 56.5592 360.614 53.2 362.723 50.4663C363.77 49.103 365.013 47.8872 366.368 46.805C367.716 45.7228 369.217 44.7881 370.691 43.7972C373.645 41.8506 376.634 39.9462 379.657 38.105C385.698 34.4085 391.913 31.0283 398.226 27.8167C399.818 27.0226 401.361 26.1793 402.974 25.5679C404.587 24.9354 406.263 24.4786 407.967 24.2678C411.382 23.818 414.86 24.5349 418.044 25.9122C419.629 26.6009 421.207 27.4442 422.793 28.2313C424.371 29.0325 425.942 29.8476 427.506 30.6699C430.635 32.3213 433.728 34.0431 436.787 35.828C439.846 37.613 442.869 39.4542 445.858 41.3517C447.353 42.3004 448.84 43.2631 450.321 44.24C451.808 45.2168 453.275 46.1655 454.594 47.311C454.769 47.4656 455.034 47.4445 455.188 47.2688C455.342 47.0931 455.328 46.819 455.153 46.6644L455.146 46.6574C453.791 45.4557 452.276 44.4648 450.809 43.481C449.336 42.4901 447.849 41.5133 446.361 40.5505C443.379 38.618 440.356 36.7416 437.297 34.9426C434.231 33.1365 431.131 31.4007 427.995 29.7352C426.431 28.8989 424.853 28.0767 423.275 27.2685C421.682 26.4674 420.139 25.6382 418.47 24.9003C415.174 23.4526 411.473 22.6655 407.828 23.1364C406.012 23.3472 404.245 23.8321 402.555 24.4857C400.851 25.1322 399.273 25.9895 397.688 26.7626C391.34 29.9531 385.104 33.3754 379.036 37.0789C375.998 38.9272 373.002 40.8386 370.034 42.7993C368.568 43.7832 367.046 44.7249 365.621 45.8703C364.203 47.0018 362.884 48.2878 361.773 49.7425C359.518 52.6589 358.275 56.271 357.842 59.8691C357.618 61.6892 357.555 63.4602 357.451 65.2452C357.353 67.0301 357.269 68.8081 357.206 70.5931C356.941 77.726 356.927 84.88 357.192 92.0129C357.255 93.7979 357.332 95.5829 357.43 97.3608C357.534 99.1528 357.604 100.91 357.793 102.73C358.177 106.335 359.357 109.961 361.557 112.92C362.639 114.403 363.931 115.717 365.335 116.862C366.738 118.029 368.268 118.977 369.734 119.961C372.702 121.922 375.698 123.833 378.728 125.689C384.79 129.406 391.033 132.829 397.367 136.033C398.952 136.82 400.516 137.671 402.206 138.352C403.882 139.027 405.642 139.547 407.451 139.807C411.082 140.369 414.825 139.659 418.142 138.254C419.825 137.551 421.375 136.701 422.967 135.914C424.552 135.105 426.131 134.297 427.695 133.461C430.837 131.796 433.945 130.081 437.018 128.282C440.09 126.49 443.121 124.627 446.117 122.716C447.611 121.76 449.105 120.79 450.586 119.807C452.052 118.83 453.582 117.86 454.964 116.672C456.347 115.499 457.625 114.171 458.686 112.674C459.741 111.177 460.579 109.518 461.159 107.776C461.745 106.04 462.087 104.234 462.276 102.435C462.443 100.615 462.513 98.8647 462.611 97.0727C462.974 89.9398 463.093 82.7998 462.925 75.6599C462.849 72.0899 462.695 68.527 462.478 64.9641C462.353 63.1861 462.304 61.4011 462.045 59.6021C461.794 57.8101 461.361 56.0321 460.684 54.3385C460.642 54.1136 460.39 54.0082 460.174 54.0925Z" fill="white"/>
<path d="M131.812 80.2432C132.639 67.3144 138.089 57.8394 148.827 50.6575C162.781 41.3231 174.101 34.7603 189.141 27.304C200.706 21.5642 211.606 21.5642 223.171 27.3111C238.196 34.7743 249.516 41.3372 263.477 50.6715C274.209 57.8534 279.659 67.3214 280.492 80.2362C281.529 96.3304 281.641 111.25 280.492 129.06C279.659 141.982 274.209 151.45 263.47 158.632C249.516 167.959 238.203 174.515 223.178 181.978C211.606 187.725 200.706 187.725 189.134 181.985C174.101 174.522 162.788 167.973 148.834 158.646C138.089 151.464 132.639 141.989 131.812 129.053C130.782 112.917 130.677 98.0045 131.812 80.2432Z" fill="url(#paint0_linear_75_276)"/>
<path d="M237.711 161.272C234.349 163.256 230.951 165.176 227.498 166.991C225.775 167.906 224.037 168.799 222.3 169.678C220.57 170.564 218.791 171.437 216.948 172.154C213.257 173.547 209.292 174.37 205.313 174.229C201.327 174.145 197.425 173.104 193.79 171.556C191.976 170.754 190.245 169.868 188.501 168.982C186.764 168.103 185.034 167.195 183.303 166.288C179.857 164.459 176.446 162.553 173.083 160.576C169.714 158.599 166.4 156.531 163.122 154.421C161.483 153.366 159.851 152.29 158.233 151.206C156.601 150.095 155.031 148.885 153.56 147.549C150.66 144.848 148.188 141.612 146.59 137.947C144.937 134.31 144.125 130.35 143.837 126.404C143.326 118.589 143.074 110.76 143.158 102.924C143.2 99.0059 143.305 95.0949 143.508 91.1839C143.613 89.2284 143.725 87.2799 143.866 85.3244C144.006 83.3478 144.307 81.3853 144.741 79.4439C145.652 75.5821 147.27 71.854 149.645 68.6675C150.821 67.0708 152.166 65.6006 153.623 64.2641C155.094 62.9417 156.671 61.7529 158.303 60.6556C158.499 60.522 158.765 60.5782 158.891 60.7752C159.017 60.9721 158.968 61.2324 158.779 61.3661L158.772 61.3731C157.189 62.4704 155.669 63.6592 154.254 64.9675C152.86 66.29 151.585 67.732 150.45 69.2795C148.174 72.3675 146.646 75.9619 145.792 79.7041C145.379 81.5822 145.105 83.4885 144.979 85.4159C144.853 87.3573 144.755 89.3058 144.664 91.2542C144.496 95.1512 144.37 99.0481 144.328 102.945C144.244 110.739 144.496 118.547 145.007 126.327C145.281 130.16 146.072 133.98 147.655 137.462C149.189 140.972 151.55 144.067 154.345 146.669C155.76 147.957 157.287 149.131 158.87 150.215C160.488 151.291 162.113 152.367 163.746 153.415C167.017 155.525 170.316 157.579 173.665 159.549C177.013 161.519 180.403 163.418 183.843 165.24C185.559 166.147 187.282 167.047 189.02 167.927C190.75 168.806 192.494 169.699 194.238 170.466C197.762 171.971 201.509 172.956 205.327 173.055C209.138 173.216 212.948 172.457 216.542 171.134C218.335 170.452 220.059 169.622 221.803 168.743C223.54 167.877 225.277 166.998 227 166.098C230.447 164.304 233.879 162.468 237.256 160.541C237.459 160.421 237.718 160.499 237.837 160.703C237.977 160.892 237.907 161.153 237.711 161.272ZM164.061 57.3988C164.187 57.5957 164.446 57.659 164.649 57.5324C172.081 52.8477 179.703 48.4935 187.527 44.5122C189.482 43.5274 191.45 42.5075 193.419 41.6071C195.394 40.7137 197.432 39.9752 199.527 39.4617C203.709 38.4136 208.115 38.3784 212.311 39.3491C214.413 39.8274 216.458 40.5308 218.44 41.4031C220.402 42.2894 222.37 43.3234 224.318 44.3082C228.219 46.3129 232.086 48.381 235.89 50.5686C239.7 52.7422 243.441 55.0283 247.147 57.3918C248.989 58.5805 250.831 59.7693 252.66 60.9932C254.481 62.2102 256.239 63.4552 257.829 64.9324C261.024 67.8375 263.587 71.4319 265.156 75.4555C265.948 77.4602 266.515 79.5634 266.873 81.7018C267.23 83.8402 267.349 86.0138 267.482 88.2155C267.986 97.0082 268.141 105.815 267.867 114.615C267.727 119.004 267.531 123.436 267.181 127.783C266.733 132.095 265.542 136.35 263.363 140.092C261.213 143.849 258.095 146.986 254.579 149.518C253.71 150.158 252.779 150.749 251.861 151.354L249.108 153.155L243.595 156.763L243.581 156.77C243.385 156.897 243.329 157.157 243.455 157.354C243.581 157.551 243.84 157.615 244.044 157.488L249.619 153.95L252.407 152.177C253.339 151.593 254.264 151.002 255.174 150.348C258.789 147.774 262.046 144.545 264.309 140.648C266.599 136.772 267.86 132.348 268.351 127.909C268.589 125.672 268.666 123.492 268.792 121.276C268.904 119.067 268.995 116.866 269.058 114.657C269.331 105.822 269.177 96.973 268.666 88.1592C268.533 85.9645 268.414 83.7277 268.042 81.5119C267.671 79.3032 267.083 77.1226 266.256 75.0264C264.624 70.827 261.934 67.0708 258.621 64.0601C256.982 62.5408 255.139 61.2324 253.304 60.0085C251.476 58.7845 249.626 57.5887 247.77 56.3929C244.057 54.0224 240.296 51.7292 236.464 49.5416C232.639 47.347 228.759 45.2648 224.843 43.2531C222.867 42.2613 220.948 41.2413 218.903 40.3198C216.857 39.4265 214.735 38.6949 212.556 38.1955C208.192 37.1896 203.576 37.2107 199.233 38.3221C197.061 38.8708 194.96 39.6445 192.935 40.5801C190.911 41.5227 188.984 42.5426 187.023 43.5485C179.199 47.5861 171.556 52.0036 164.187 56.829C163.998 56.9345 163.935 57.1948 164.061 57.3988Z" fill="white"/>
<path d="M321 31.6045L199.849 138.686C198.189 140.156 195.716 140.198 194 138.798L153.883 105.963C153.883 99.5476 154.1 93.1395 154.534 86.3515C155.024 78.6913 157.953 73.5985 164.32 69.3429C166.618 67.8094 168.824 66.3674 170.989 64.9887L196.97 85.1346L293.288 0L321 31.6045Z" fill="url(#paint1_linear_75_276)"/>
<path d="M59.2699 204.844C57.1626 206.091 55.0333 207.298 52.8689 208.439C51.7889 209.014 50.7001 209.576 49.6113 210.129C48.5269 210.686 47.4118 211.234 46.2571 211.686C43.9435 212.561 41.4586 213.079 38.9649 212.99C36.4668 212.937 34.0214 212.283 31.7429 211.31C30.6058 210.805 29.5214 210.248 28.4282 209.691C27.3394 209.138 26.255 208.568 25.1707 207.997C23.0106 206.847 20.8726 205.649 18.7652 204.406C16.6535 203.163 14.5769 201.863 12.5223 200.536C11.4949 199.873 10.472 199.196 9.45786 198.515C8.43492 197.816 7.45149 197.055 6.52953 196.215C4.71196 194.517 3.16219 192.482 2.16121 190.178C1.1251 187.892 0.615841 185.402 0.43584 182.92C0.115349 178.007 -0.0427092 173.084 0.00997415 168.158C0.0363158 165.694 0.10217 163.235 0.229488 160.776C0.295342 159.547 0.365591 158.321 0.453396 157.092C0.541202 155.849 0.729984 154.615 1.00218 153.395C1.57292 150.967 2.58707 148.623 4.07537 146.619C4.81294 145.615 5.65587 144.691 6.56904 143.85C7.491 143.019 8.47883 142.272 9.50176 141.582C9.62469 141.498 9.79151 141.533 9.87054 141.657C9.94956 141.781 9.91883 141.944 9.80029 142.028L9.7959 142.033C8.80369 142.723 7.851 143.47 6.96417 144.293C6.0905 145.124 5.29148 146.031 4.58026 147.004C3.15342 148.945 2.19634 151.205 1.66072 153.558C1.4017 154.739 1.23047 155.938 1.15145 157.149C1.07242 158.37 1.01096 159.595 0.953884 160.82C0.848517 163.27 0.769501 165.721 0.743159 168.171C0.690476 173.071 0.848513 177.98 1.169 182.872C1.34022 185.282 1.83634 187.684 2.82854 189.873C3.79001 192.08 5.26953 194.026 7.02125 195.662C7.90809 196.472 8.86515 197.21 9.85736 197.891C10.8715 198.568 11.8901 199.245 12.913 199.904C14.9633 201.23 17.0311 202.522 19.1296 203.76C21.2282 204.998 23.3531 206.193 25.5087 207.338C26.5843 207.909 27.6643 208.475 28.7531 209.028C29.8375 209.58 30.9307 210.142 32.0239 210.624C34.2322 211.571 36.581 212.19 38.9737 212.252C41.362 212.353 43.7503 211.876 46.0025 211.044C47.1264 210.615 48.2064 210.093 49.2996 209.541C50.3884 208.997 51.4772 208.444 52.5572 207.878C54.7172 206.75 56.8684 205.596 58.9845 204.384C59.1119 204.309 59.2743 204.357 59.349 204.485C59.4368 204.605 59.3928 204.768 59.2699 204.844ZM13.1106 139.534C13.1896 139.658 13.352 139.698 13.4793 139.618C18.1374 136.672 22.914 133.935 27.818 131.432C29.0429 130.812 30.2765 130.171 31.5102 129.605C32.7483 129.043 34.0258 128.579 35.3385 128.256C37.9595 127.597 40.721 127.575 43.3508 128.185C44.6679 128.486 45.9498 128.928 47.1923 129.477C48.4216 130.034 49.6552 130.684 50.8757 131.303C53.3211 132.564 55.7445 133.864 58.1284 135.24C60.5168 136.606 62.8612 138.043 65.1836 139.53C66.3383 140.277 67.4929 141.024 68.6388 141.794C69.7803 142.559 70.8822 143.342 71.8788 144.271C73.8808 146.097 75.4876 148.357 76.471 150.887C76.9671 152.147 77.3227 153.47 77.5466 154.814C77.7706 156.159 77.8452 157.525 77.9286 158.91C78.2447 164.438 78.3413 169.975 78.1701 175.508C78.0822 178.268 77.9593 181.054 77.7398 183.787C77.4588 186.498 76.7125 189.174 75.3471 191.527C73.9993 193.889 72.0456 195.861 69.8417 197.453C69.2973 197.856 68.7134 198.227 68.1383 198.608L66.4129 199.74L62.9577 202.009L62.949 202.013C62.826 202.093 62.7909 202.256 62.8699 202.38C62.949 202.504 63.1114 202.544 63.2387 202.464L66.7334 200.24L68.4807 199.125C69.0646 198.758 69.6441 198.387 70.2149 197.975C72.4803 196.357 74.5217 194.327 75.9398 191.876C77.3754 189.439 78.1657 186.658 78.473 183.867C78.6223 182.46 78.6706 181.089 78.7496 179.696C78.8198 178.308 78.8769 176.923 78.9164 175.535C79.0876 169.98 78.9911 164.416 78.6706 158.874C78.5872 157.494 78.5125 156.088 78.2798 154.695C78.0471 153.306 77.6783 151.935 77.1603 150.617C76.1374 147.977 74.4515 145.615 72.3749 143.722C71.3476 142.767 70.1929 141.944 69.0427 141.175C67.8968 140.405 66.7378 139.653 65.5744 138.901C63.2475 137.411 60.8899 135.969 58.4885 134.594C56.0914 133.214 53.6592 131.905 51.205 130.64C49.9669 130.016 48.764 129.375 47.482 128.796C46.2001 128.234 44.8698 127.774 43.5044 127.46C40.7693 126.828 37.8761 126.841 35.1541 127.54C33.7931 127.885 32.4761 128.371 31.2073 128.959C29.9385 129.552 28.7312 130.193 27.5019 130.826C22.598 133.364 17.8082 136.142 13.1896 139.176C13.0711 139.242 13.0315 139.406 13.1106 139.534Z" fill="white"/>
<path d="M428.27 114.844C426.163 116.091 424.033 117.298 421.869 118.439C420.789 119.014 419.7 119.576 418.611 120.129C417.527 120.686 416.412 121.234 415.257 121.686C412.943 122.561 410.459 123.079 407.965 122.99C405.467 122.937 403.021 122.283 400.743 121.31C399.606 120.805 398.521 120.248 397.428 119.691C396.339 119.138 395.255 118.568 394.171 117.997C392.011 116.847 389.873 115.649 387.765 114.406C385.654 113.163 383.577 111.863 381.522 110.536C380.495 109.873 379.472 109.196 378.458 108.515C377.435 107.816 376.451 107.055 375.53 106.215C373.712 104.517 372.162 102.482 371.161 100.178C370.125 97.8915 369.616 95.4015 369.436 92.9204C369.115 88.0068 368.957 83.0844 369.01 78.1575C369.036 75.6941 369.102 73.2351 369.229 70.7761C369.295 69.5466 369.366 68.3215 369.453 67.092C369.541 65.8492 369.73 64.6153 370.002 63.3946C370.573 60.9666 371.587 58.6225 373.075 56.6191C373.813 55.6151 374.656 54.6908 375.569 53.8505C376.491 53.019 377.479 52.2716 378.502 51.5816C378.625 51.4976 378.792 51.533 378.871 51.6568C378.95 51.7807 378.919 51.9443 378.8 52.0283L378.796 52.0327C377.804 52.7227 376.851 53.4701 375.964 54.2927C375.091 55.1242 374.291 56.0308 373.58 57.0038C372.153 58.9454 371.196 61.2054 370.661 63.5582C370.402 64.7391 370.23 65.9377 370.151 67.1495C370.072 68.3701 370.011 69.5952 369.954 70.8203C369.849 73.2705 369.77 75.7206 369.743 78.1708C369.69 83.0711 369.849 87.9803 370.169 92.8718C370.34 95.2821 370.836 97.6836 371.829 99.8729C372.79 102.08 374.27 104.026 376.021 105.662C376.908 106.472 377.865 107.21 378.857 107.891C379.872 108.568 380.89 109.245 381.913 109.904C383.963 111.23 386.031 112.522 388.13 113.76C390.228 114.998 392.353 116.193 394.509 117.338C395.584 117.909 396.664 118.475 397.753 119.028C398.838 119.58 399.931 120.142 401.024 120.624C403.232 121.571 405.581 122.19 407.974 122.252C410.362 122.353 412.75 121.876 415.003 121.044C416.126 120.615 417.206 120.093 418.3 119.541C419.388 118.997 420.477 118.444 421.557 117.878C423.717 116.75 425.868 115.596 427.985 114.384C428.112 114.309 428.274 114.357 428.349 114.485C428.437 114.605 428.393 114.768 428.27 114.844ZM382.111 49.5339C382.19 49.6578 382.352 49.6976 382.479 49.618C387.137 46.6725 391.914 43.9348 396.818 41.4316C398.043 40.8124 399.277 40.1711 400.51 39.605C401.748 39.0433 403.026 38.579 404.339 38.2561C406.96 37.5971 409.721 37.575 412.351 38.1853C413.668 38.4861 414.95 38.9283 416.192 39.4768C417.422 40.034 418.655 40.6841 419.876 41.3033C422.321 42.5638 424.745 43.8641 427.128 45.2395C429.517 46.6061 431.861 48.0435 434.184 49.5295C435.338 50.2769 436.493 51.0244 437.639 51.7939C438.78 52.559 439.882 53.3419 440.879 54.2706C442.881 56.0972 444.488 58.3572 445.471 60.8869C445.967 62.1474 446.323 63.4698 446.547 64.8143C446.771 66.1588 446.845 67.5254 446.929 68.9097C447.245 74.438 447.341 79.9752 447.17 85.508C447.082 88.2678 446.959 91.054 446.74 93.7873C446.459 96.4984 445.712 99.1741 444.347 101.527C442.999 103.889 441.046 105.861 438.842 107.453C438.297 107.856 437.713 108.227 437.138 108.608L435.413 109.74L431.958 112.009L431.949 112.013C431.826 112.093 431.791 112.256 431.87 112.38C431.949 112.504 432.111 112.544 432.239 112.464L435.733 110.24L437.481 109.125C438.065 108.758 438.644 108.387 439.215 107.975C441.48 106.357 443.522 104.327 444.94 101.876C446.375 99.4395 447.166 96.6576 447.473 93.8669C447.622 92.4605 447.671 91.0894 447.75 89.6963C447.82 88.3076 447.877 86.9233 447.916 85.5345C448.088 79.9797 447.991 74.4159 447.671 68.8743C447.587 67.4944 447.512 66.088 447.28 64.6949C447.047 63.3062 446.678 61.9351 446.16 60.6172C445.137 57.9768 443.451 55.6151 441.375 53.7222C440.348 52.7669 439.193 51.9443 438.043 51.1747C436.897 50.4052 435.738 49.6533 434.574 48.9015C432.248 47.411 429.89 45.9692 427.488 44.5938C425.091 43.2139 422.659 41.9048 420.205 40.6399C418.967 40.0163 417.764 39.375 416.482 38.7957C415.2 38.234 413.87 37.774 412.504 37.46C409.769 36.8276 406.876 36.8408 404.154 37.5396C402.793 37.8846 401.476 38.3711 400.207 38.9593C398.938 39.5519 397.731 40.1932 396.502 40.8257C391.598 43.3643 386.808 46.1417 382.19 49.1757C382.071 49.242 382.032 49.4057 382.111 49.5339Z" fill="white"/>
<defs>
<linearGradient id="paint0_linear_75_276" x1="184.789" y1="36.6722" x2="255.629" y2="186.062" gradientUnits="userSpaceOnUse">
<stop stop-color="white" stop-opacity="0.2"/>
<stop offset="1" stop-color="white" stop-opacity="0.9"/>
</linearGradient>
<linearGradient id="paint1_linear_75_276" x1="178.355" y1="126.581" x2="288.449" y2="-4.08016" gradientUnits="userSpaceOnUse">
<stop offset="0.0776957" stop-color="#FF0030" stop-opacity="0.7"/>
<stop offset="0.9665" stop-color="#FF9C9C" stop-opacity="0"/>
</linearGradient>
</defs>
</svg>
