<svg width="24" height="24" viewBox="0 0 24 24" fill="none" xmlns="http://www.w3.org/2000/svg">
<path fill-rule="evenodd" clip-rule="evenodd" d="M19.003 17.9428C19.2959 18.2357 19.2959 18.7106 19.003 19.0035C18.7101 19.2963 18.2352 19.2963 17.9423 19.0035L12.001 13.0621L6.05962 19.0035C5.76673 19.2963 5.29186 19.2963 4.99897 19.0035C4.70607 18.7106 4.70607 18.2357 4.99897 17.9428L10.9403 12.0014L4.99953 6.06061C4.70664 5.76771 4.70664 5.29284 4.99953 4.99994C5.29243 4.70705 5.7673 4.70705 6.06019 4.99994L12.001 10.9408L17.9418 4.99994C18.2346 4.70705 18.7095 4.70705 19.0024 4.99994C19.2953 5.29284 19.2953 5.76771 19.0024 6.06061L13.0616 12.0014L19.003 17.9428Z" fill="#939FC3"/>
</svg>
