<svg width="20" height="18" viewBox="0 0 20 18" fill="none" xmlns="http://www.w3.org/2000/svg">
<path fill-rule="evenodd" clip-rule="evenodd" d="M6 1V4H2.91421C2.02331 4 1.57714 5.07714 2.20711 5.70711L9.29289 12.7929C9.68342 13.1834 10.3166 13.1834 10.7071 12.7929L17.7929 5.70711C18.4229 5.07714 17.9767 4 17.0858 4H14V1C14 0.447715 13.5523 0 13 0H7C6.44772 0 6 0.447715 6 1ZM7.5 5.5V1.5H12.5V5.5H15.8787L10 11.3787L4.12132 5.5H7.5Z" fill="#E3EDF7"/>
<path d="M0 16V13H1.5V16C1.5 16.2761 1.72386 16.5 2 16.5H18C18.2761 16.5 18.5 16.2761 18.5 16V13H20V16C20 17.1046 19.1046 18 18 18H2C0.895431 18 0 17.1046 0 16Z" fill="#E3EDF7"/>
</svg>
