<svg width="18" height="17" viewBox="0 0 18 17" fill="none" xmlns="http://www.w3.org/2000/svg">
<path d="M9.0027 4.41797C8.58849 4.41797 8.2527 4.08218 8.2527 3.66797L8.2527 1.41797C8.2527 1.00376 8.58849 0.667969 9.0027 0.667969C9.41692 0.667969 9.7527 1.00376 9.7527 1.41797V3.66797C9.7527 4.08218 9.41692 4.41797 9.0027 4.41797Z" fill="#003CA0"/>
<path d="M3.61652 4.45397C3.82964 4.80915 3.71447 5.26984 3.35929 5.48296C3.0041 5.69607 2.54341 5.58091 2.33029 5.22572L1.20529 3.35077C0.992177 2.99559 1.10735 2.53489 1.46253 2.32177C1.81771 2.10866 2.27841 2.22383 2.49152 2.57901L3.61652 4.45397Z" fill="#003CA0"/>
<path d="M14.3918 4.45396C14.1787 4.80915 14.2939 5.26984 14.6491 5.48296C15.0042 5.69607 15.4649 5.58091 15.678 5.22572L16.803 3.35077C17.0162 2.99559 16.901 2.53489 16.5458 2.32177C16.1906 2.10866 15.7299 2.22383 15.5168 2.57901L14.3918 4.45396Z" fill="#003CA0"/>
<path fill-rule="evenodd" clip-rule="evenodd" d="M0.13158 10.6188C2.02726 7.85602 5.29738 6.04297 8.99884 6.04297C12.7003 6.04297 15.9704 7.85602 17.8661 10.6188C18.0415 10.8745 18.0415 11.2118 17.8661 11.4674C15.9704 14.2302 12.7003 16.0433 8.99884 16.0433C5.29738 16.0433 2.02726 14.2302 0.13158 11.4674C-0.0438601 11.2118 -0.0438601 10.8745 0.13158 10.6188ZM1.67905 11.0431C3.33008 13.1602 5.98817 14.5433 8.99884 14.5433C12.0095 14.5433 14.6676 13.1602 16.3186 11.0431C15.2823 9.71428 13.8493 8.67464 12.1813 8.08467C12.3851 8.52861 12.4987 9.02253 12.4987 9.54297C12.4987 11.476 10.9317 13.043 8.99868 13.043C7.06569 13.043 5.49868 11.476 5.49868 9.54297C5.49868 9.02258 5.61226 8.52871 5.81596 8.08481C4.14817 8.6748 2.71527 9.71438 1.67905 11.0431Z" fill="#003CA0"/>
</svg>
