<svg width="24" height="24" viewBox="0 0 24 24" fill="none" xmlns="http://www.w3.org/2000/svg">
<path d="M4.75 8V3.99997C4.75 3.30963 5.30963 2.75 5.99997 2.75H13.5203C13.8518 2.75 14.1698 2.8817 14.4042 3.11613L18.8832 7.59535C19.1176 7.82976 19.2493 8.14769 19.2493 8.47919V20C19.2493 20.6904 18.6896 21.25 17.9993 21.25H9.99973" stroke="white" stroke-width="1.49996" stroke-linecap="round" stroke-linejoin="round"/>
<path d="M5.55078 17.334L2.50015 20.3848" stroke="white" stroke-width="1.49996" stroke-miterlimit="10" stroke-linecap="round" stroke-linejoin="round"/>
<path d="M8.50701 18.2567C6.36504 18.2567 4.62864 16.5203 4.62864 14.3784C4.62864 12.2364 6.36504 10.5 8.50701 10.5C10.649 10.5 12.3854 12.2364 12.3854 14.3784C12.3854 16.5203 10.649 18.2567 8.50701 18.2567Z" stroke="white" stroke-width="1.49996" stroke-miterlimit="10" stroke-linecap="round" stroke-linejoin="round"/>
</svg>
