<svg width="24" height="24" viewBox="0 0 24 24" fill="none" xmlns="http://www.w3.org/2000/svg">
<path fill-rule="evenodd" clip-rule="evenodd" d="M1.50977 3.74023C1.50977 3.32602 1.84555 2.99023 2.25977 2.99023H8.75695C9.96417 2.99097 10.6655 3.69186 11.1552 4.18157C11.1676 4.19405 11.18 4.2064 11.1922 4.21859C11.7108 4.73634 12.0152 5.00763 12.5676 5.00763L18.7504 5.00872C19.1646 5.0088 19.5003 5.34456 19.5003 5.75872V8.20428H23.1514C23.4066 8.20428 23.6444 8.33411 23.7824 8.54887C23.9203 8.76362 23.9396 9.03381 23.8335 9.26599L19.7061 18.2986C19.229 19.3436 18.1855 20.0143 17.0366 20.0143H3.89854C2.57972 20.0143 1.50977 18.9444 1.50977 17.6256V3.74023ZM18.0003 8.20428V6.50859L12.5676 6.50763C11.36 6.50758 10.6589 5.80658 10.1691 5.31675C10.1567 5.30439 10.1445 5.29217 10.1324 5.28009C9.61374 4.76227 9.3092 4.49063 8.75667 4.49023H3.00977V17.2368L6.52976 8.66926C6.64534 8.38794 6.91936 8.20428 7.22349 8.20428H18.0003ZM4.10653 18.5143H17.0366C17.5984 18.5143 18.1085 18.1864 18.3416 17.6758L21.9841 9.70428H7.72619L4.10653 18.5143Z" fill="#939FC3"/>
</svg>
