<svg width="24" height="24" viewBox="0 0 24 24" fill="none" xmlns="http://www.w3.org/2000/svg">
<path fill-rule="evenodd" clip-rule="evenodd" d="M9.88027 2.53911C11.2259 1.81564 12.8125 1.83355 14.1457 2.56101C16.9765 4.10416 19.7702 5.90468 22.3341 7.84334C22.6645 8.09317 22.7298 8.56353 22.48 8.89393C22.2301 9.22432 21.7598 9.28963 21.4294 9.0398C21.2861 8.93146 21.1421 8.82356 20.9973 8.71611L20.9954 19.2556C20.9953 20.2231 20.2112 21.0074 19.2436 21.0074L14.5146 21.006C14.4904 21.0083 14.4659 21.0095 14.4412 21.0095C14.4162 21.0095 14.3916 21.0083 14.3673 21.0059L9.64197 21.0045C9.61335 21.0078 9.58424 21.0095 9.55473 21.0095C9.52506 21.0095 9.4958 21.0078 9.46703 21.0044L4.75269 21.003C3.78575 21.0029 3.002 20.2182 3.002 19.2512L3.00396 8.71161C2.85988 8.81898 2.71506 8.92767 2.56942 9.03774C2.23896 9.28748 1.76862 9.22204 1.51888 8.89158C1.26914 8.56112 1.33458 8.09078 1.66504 7.84104C4.46006 5.72876 6.96948 4.10416 9.88027 2.53911ZM4.50416 7.62291L4.502 19.2512C4.50207 19.3909 4.61519 19.503 4.75269 19.503L8.80473 19.5042V12.0527C8.80473 11.6385 9.14052 11.3027 9.55473 11.3027H14.4412C14.8554 11.3027 15.1912 11.6385 15.1912 12.0527V19.5062L19.2436 19.5074C19.3827 19.5073 19.4954 19.3947 19.4954 19.2556L19.4975 7.63663C17.5475 6.27579 15.4974 5.00623 13.4275 3.87789C12.5319 3.38921 11.4825 3.38073 10.5906 3.86028C8.43558 5.01895 6.50704 6.21016 4.50416 7.62291ZM13.6912 19.5057V12.8027H10.3047V19.5047L13.6912 19.5057Z" fill="#939FC3"/>
</svg>
