<svg width="20" height="20" viewBox="0 0 20 20" fill="none" xmlns="http://www.w3.org/2000/svg">
<path d="M10 5.02148C10.4142 5.02148 10.75 5.35727 10.75 5.77148V10.8645C10.75 11.2787 10.4142 11.6145 10 11.6145C9.58579 11.6145 9.25 11.2787 9.25 10.8645V5.77148C9.25 5.35727 9.58579 5.02148 10 5.02148Z" fill="#003CA0"/>
<path d="M10 15.0156C10.5523 15.0156 11 14.5679 11 14.0156C11 13.4633 10.5523 13.0156 10 13.0156C9.44771 13.0156 9 13.4633 9 14.0156C9 14.5679 9.44771 15.0156 10 15.0156Z" fill="#003CA0"/>
<path fill-rule="evenodd" clip-rule="evenodd" d="M17.0743 2.92597C13.1725 -0.97469 6.82664 -0.976007 2.9256 2.92612C-0.975134 6.82793 -0.975264 13.1737 2.9256 17.0746C6.82651 20.9766 13.1735 20.9766 17.0744 17.0746C20.9751 13.1729 20.9764 6.82701 17.0743 2.92597ZM3.9864 3.98663C7.30136 0.670757 12.6975 0.67144 16.0137 3.98678C19.3296 7.30173 19.3289 12.6979 16.0136 16.0141C12.6985 19.3301 7.30149 19.3301 3.9864 16.0141C0.671338 12.6991 0.671159 7.3028 3.9864 3.98663Z" fill="#003CA0"/>
</svg>
