<svg width="45" height="49" viewBox="0 0 45 49" fill="none" xmlns="http://www.w3.org/2000/svg">
<g clip-path="url(#clip0_476_147)">
<path d="M10.2148 28.3271C10.3598 29.1797 10.3202 29.9968 10.2938 31.0261C10.2774 31.6563 10.1602 32.3855 9.8669 32.994C9.12572 34.5304 8.06368 35.5435 7.05828 36.396C6.78939 35.3415 6.60464 34.2975 6.49609 33.2279C7.37869 32.5126 8.51516 31.6268 9.53864 29.839C9.5382 29.8386 9.53775 29.8383 9.53736 29.8379C9.87201 29.2773 10.0976 28.7781 10.2148 28.3271Z" fill="#003CA0"/>
<path d="M2.7561 21.3596C1.97136 20.4958 1.60122 19.4081 1.89352 18.6703C2.74831 17.346 4.50595 16.1519 6.53995 15.2665C6.66268 16.5661 6.59719 19.4038 6.59301 19.4051C5.15461 19.8549 3.74615 20.4894 2.7561 21.3596Z" fill="#003CA0"/>
<path d="M4.60112 38.8134C4.60035 38.8147 4.59951 38.8158 4.59878 38.8168C6.00236 41.0265 8.70109 42.0707 11.7683 42.5066C11.83 42.862 11.8999 43.2693 11.9759 43.7114C12.081 44.3244 12.3921 45.6552 13.0507 45.6758C8.39465 45.5301 4.87179 44.0153 3.94601 40.2935C3.62499 39.0029 3.5619 37.9891 3.6784 37.1595C3.84576 37.6682 4.15209 38.2178 4.60112 38.8134Z" fill="#003CA0"/>
<path d="M4.90136 38.3772C4.11895 37.3023 3.86552 36.428 4.12863 35.722C4.48748 35.0312 5.00573 34.4938 5.58088 33.9885C5.71752 35.0326 5.92638 36.0594 6.21335 37.1008C5.70873 37.5236 5.2528 37.9309 4.90136 38.3772Z" fill="#003CA0"/>
<path d="M7.50302 14.8774C8.30362 14.5785 9.12958 14.3278 9.94615 14.1359L10.9768 18.5119C10.0837 18.6034 8.86703 18.794 7.60038 19.1189C7.67955 17.6299 7.64834 16.2377 7.50302 14.8774Z" fill="#003CA0"/>
<path d="M33.8899 28.3126C33.7448 29.1655 33.7844 29.9824 33.8109 31.0117C33.8271 31.6419 33.9445 32.371 34.2377 32.9796C34.9788 34.516 36.0409 35.5292 37.0464 36.3816C37.3152 35.3272 37.4999 34.2831 37.6086 33.2134C36.7259 32.4982 35.5894 31.6125 34.566 29.8246C34.5665 29.8242 34.5669 29.8239 34.5673 29.8235C34.2326 29.2629 34.007 28.7637 33.8899 28.3126Z" fill="#003CA0"/>
<path d="M41.3493 21.3452C42.1341 20.4815 42.5042 19.3937 42.2118 18.6559C41.3571 17.3316 39.5994 16.1374 37.5654 15.2522C37.4428 16.5516 37.5083 19.3894 37.5123 19.3906C38.9508 19.8405 40.3593 20.475 41.3493 21.3452Z" fill="#003CA0"/>
<path d="M39.5033 38.799C39.5042 38.8003 39.5049 38.8014 39.5056 38.8024C38.1021 41.0122 35.4034 42.0563 32.3361 42.4922C32.2744 42.8476 32.2046 43.2551 32.1286 43.6969C32.0235 44.31 31.7124 45.6408 31.0538 45.6614C35.7098 45.5159 39.2326 44.0009 40.1584 40.2789C40.4794 38.9885 40.5426 37.9746 40.426 37.1451C40.2586 37.6538 39.9524 38.2034 39.5033 38.799Z" fill="#003CA0"/>
<path d="M39.2035 38.3628C39.9858 37.2882 40.2393 36.4136 39.9761 35.7078C39.6174 35.0168 39.0991 34.4797 38.5239 33.9743C38.3874 35.0184 38.1784 36.0452 37.8914 37.0865C38.396 37.5095 38.8521 37.9167 39.2035 38.3628Z" fill="#003CA0"/>
<path d="M36.6027 14.863C35.8021 14.5641 34.9762 14.3135 34.1595 14.1215L33.1289 18.4975C34.0221 18.589 35.2387 18.7796 36.5053 19.1045C36.426 17.6153 36.4573 16.2235 36.6027 14.863Z" fill="#003CA0"/>
<path d="M30.641 10.9117C29.7295 11.6602 29.117 12.8838 28.4334 14.568C28.2482 15.0143 28.12 15.2446 27.8352 15.1438C26.2542 14.6256 24.189 14.2657 22.0526 14.2657C19.9162 14.2657 17.851 14.64 16.2701 15.1438C15.9852 15.2302 15.857 14.9999 15.6719 14.568C14.974 12.8838 14.3615 11.6602 13.4643 10.9117C13.7349 11.8761 13.1652 12.9702 13.094 13.2437C12.6667 14.9855 14.3046 15.9644 16.2558 15.9644C16.4125 15.9644 27.6785 15.9644 27.8209 15.9644C29.7864 15.9644 31.4102 14.9711 30.983 13.2437C30.9401 12.9702 30.3704 11.8761 30.641 10.9117Z" fill="#003CA0"/>
<path d="M31.1822 10.8828C30.9117 11.4443 31.1537 12.236 31.3816 12.8118C31.7946 12.7974 32.4784 12.855 33.8315 13.2292L34.5436 10.1199C31.8658 9.80321 31.3246 10.5662 31.1822 10.8828Z" fill="#003CA0"/>
<path d="M12.923 10.8826C12.7806 10.5659 12.2394 9.81736 9.57599 10.1053L10.2881 13.2146C11.6412 12.8403 12.3248 12.7827 12.7379 12.7971C12.9516 12.2357 13.1936 11.444 12.923 10.8826Z" fill="#003CA0"/>
<path d="M18.6201 43.7323C18.9477 43.9771 19.261 44.2074 19.4889 44.3657C19.5316 43.1997 19.8023 42.4512 19.9732 42.0625C18.6343 41.17 15.9425 40.4647 13.8488 40.9397C15.1306 41.1988 16.8825 42.4368 18.6201 43.7323Z" fill="#003CA0"/>
<path d="M30.328 43.3149C31.0117 43.1422 31.3535 42.7967 31.3394 42.2209C31.3394 41.6595 31.0972 41.5587 31.0117 41.5299C30.3138 41.242 28.6616 42.1489 27.4795 43.2141C28.505 43.4157 29.5447 43.502 30.328 43.3149Z" fill="#003CA0"/>
<path d="M16.9103 43.1134C15.6854 42.2641 14.2754 41.4004 13.4209 41.4004C13.2784 41.4004 13.1646 41.4292 13.0506 41.4724C12.8085 41.5875 12.6661 41.8466 12.6233 42.2785C12.5948 42.5376 12.6661 42.7391 12.8369 42.8975C13.3782 43.3725 14.8451 43.4445 16.9103 43.1134Z" fill="#003CA0"/>
<path d="M26.8952 43.0847C27.5361 42.4657 28.3194 41.8755 29.0743 41.4869C29.4731 41.2709 29.9716 41.055 30.4559 40.9974C28.3481 40.436 25.5707 41.127 24.1748 42.0483C24.5594 42.3218 25.6561 42.768 26.8952 43.0847Z" fill="#003CA0"/>
<path d="M31.7944 42.595C31.7089 43.0844 31.3814 43.5595 30.4413 43.7898C28.8177 44.1929 25.7697 43.4587 24.3312 42.7102C24.431 43.142 24.5164 43.7466 24.5023 44.6247C24.5023 44.7687 23.9894 45.2869 23.9894 45.2869C24.1033 43.4731 23.733 42.3791 23.6333 42.2063C23.6191 42.1919 23.6048 42.1631 23.5906 42.1487C23.5478 42.1344 23.5194 42.12 23.4766 42.12C22.5224 42.12 21.0269 42.12 20.6281 42.12C20.5854 42.12 20.5284 42.1344 20.4857 42.1631C20.3147 42.4798 19.9444 43.4011 19.9872 45.2005C19.9872 45.2005 19.5314 45.0134 18.6626 44.38C18.4062 44.1929 17.7938 43.7322 17.4804 43.5019C15.6859 43.833 13.3928 44.0633 12.5097 43.2428C12.2819 43.0412 12.1679 42.7821 12.1394 42.4798C8.90633 42.0912 8.46475 45.402 12.6949 45.6468C13.6064 47.4605 16.3553 46.7408 18.3492 46.1794C19.1326 46.9711 19.7735 48.3674 19.7735 48.3674C20.5854 47.9644 21.212 47.3022 21.682 46.6688C22.2946 47.187 23.3342 47.8492 24.9579 48.2955C24.9579 48.2955 24.9579 47.1438 25.2997 45.9922C27.3508 46.64 30.071 47.3742 31.0539 45.6612C35.4263 45.4596 31.7944 42.6094 31.7944 42.595Z" fill="#003CA0"/>
<path fill-rule="evenodd" clip-rule="evenodd" d="M22.0962 12.3512C24.1614 12.3512 26.1126 12.6967 27.8787 13.3301C28.4201 12.5096 29.6448 10.3935 29.6448 8.26302C29.6448 5.9742 26.5969 4.72183 24.9163 4.66425C24.9163 4.66425 22.0392 9.96164 22.0392 9.97604L19.1622 4.66425C17.4815 4.72183 14.4336 5.9742 14.4336 8.26302C14.4336 10.4223 15.687 12.5672 16.2282 13.3589C18.0228 12.7111 20.0025 12.3512 22.0962 12.3512Z" fill="#003CA0"/>
<path fill-rule="evenodd" clip-rule="evenodd" d="M23.8747 2.50486L22.0516 0.000116825L20.2285 2.50486L22.0516 6.67944L23.8747 2.50486Z" fill="#003CA0"/>
<path fill-rule="evenodd" clip-rule="evenodd" d="M31.8084 15.5466H12.2958V35.6421C12.2958 37.5711 13.8483 39.1402 15.7568 39.1402H18.1353C20.5424 39.1402 21.8527 40.1766 21.8527 41.4578H22.2657C22.2657 40.1766 23.5762 39.1402 25.9831 39.1402H28.3616C30.2703 39.1402 31.8226 37.5711 31.8226 35.6421V15.5466H31.8084Z" fill="#0064DC"/>
<path fill-rule="evenodd" clip-rule="evenodd" d="M13.2363 16.4537H30.8545V23.0178H13.2363V16.4537Z" fill="#E3EDF7"/>
<path d="M14.5034 19.2893C14.4749 19.2318 14.4179 19.203 14.3467 19.2174L14.0904 19.2606C14.0476 19.2749 14.0192 19.2893 13.9907 19.3325C13.8197 19.6348 13.8197 19.7068 13.8768 19.7644C13.9194 19.8076 14.1758 19.7644 14.4749 19.4621C14.5318 19.4189 14.5461 19.3469 14.5034 19.2893Z" fill="#0064DC"/>
<path d="M30.3561 19.2319C30.342 19.1887 30.2991 19.1599 30.2564 19.1599C30.2137 19.1455 30.1709 19.1599 30.1424 19.1887C30.1424 19.1887 29.8006 19.4334 28.9318 19.4046C28.348 19.3759 27.7354 19.1887 27.0233 18.9584C26.4964 18.7857 25.8981 18.5985 25.2002 18.4402C23.4626 17.9795 21.2122 18.2962 19.5601 18.5265C19.1328 18.5841 18.7483 18.6417 18.4349 18.6705C18.0219 18.7137 17.6231 18.5985 17.2955 18.3538C17.0676 18.1811 16.8825 18.0371 16.7258 17.8932C16.4552 17.6628 16.2415 17.4901 16.0136 17.3749C15.9852 17.303 15.9567 17.231 15.9282 17.159C15.8712 16.9431 15.7288 16.8855 15.6576 16.8567C15.5436 16.8279 15.4297 16.8567 15.3442 16.9431C15.273 17.0151 15.2018 17.1302 15.1306 17.231C15.0451 17.2454 14.9739 17.2598 14.8742 17.2886C14.86 17.2742 14.8315 17.2454 14.8173 17.231C14.6606 17.0726 14.5182 17.0726 14.4469 17.087C14.333 17.1158 14.2475 17.1878 14.2048 17.303C14.1479 17.4613 14.1336 17.706 14.1479 17.8788C14.0767 18.0371 14.0482 18.1955 14.0054 18.3682C13.977 18.5122 13.9485 18.6561 13.8915 18.8001C13.7776 19.0736 13.7064 19.2751 13.7064 19.2895C13.6779 19.3615 13.7064 19.4334 13.7776 19.4622C13.7918 19.4622 13.977 19.563 14.2475 19.5774C14.5751 19.5918 14.6748 19.5054 14.9454 19.3039C15.0167 19.2607 15.0879 19.2031 15.1876 19.1311C15.273 19.0736 15.4012 19.0736 15.4724 19.1599C15.6006 19.2895 15.7858 19.5054 15.9709 19.7357C16.0136 19.7933 16.0564 19.8509 16.1133 19.9229C16.1988 20.038 16.27 20.1532 16.3697 20.2684C16.1418 20.4699 15.8285 20.729 15.4724 20.9881C15.3158 21.1177 15.1591 21.1896 14.86 21.204C14.746 21.204 14.6036 21.3336 14.5751 21.4631C14.5609 21.5351 14.5894 21.6071 14.6606 21.6359C14.7318 21.6791 14.86 21.6935 14.9739 21.6935C15.1448 21.6935 15.3442 21.6647 15.4724 21.6503C15.5721 21.6359 16.4552 21.2616 17.1246 20.9017C17.1958 20.9305 17.267 20.9737 17.3525 21.0025C17.1246 21.1896 16.8255 21.4344 16.4979 21.6935C16.3412 21.823 16.1846 21.895 15.8855 21.9094C15.7715 21.9094 15.6291 22.039 15.6006 22.1685C15.5864 22.2405 15.6148 22.3125 15.6861 22.3412C15.7573 22.3844 15.8855 22.3988 15.9994 22.3988C16.1703 22.3988 16.3697 22.37 16.4979 22.3556C16.6261 22.3269 18.3779 21.5927 18.791 21.1609C18.9049 21.1465 19.0189 21.1321 19.1328 21.1177C20.1725 20.9593 20.9416 20.6858 21.6253 20.4555C22.3089 20.2252 22.8929 20.0092 23.5623 19.9948C24.5025 19.9661 24.9581 20.5131 25.357 20.9881C25.4995 21.1609 25.6275 21.3192 25.7699 21.4488C25.8411 21.5063 25.9267 21.5639 25.998 21.5927L26.0548 21.6215C26.1972 21.7079 26.2684 21.7798 26.2969 21.8518C26.2828 21.8662 26.2684 21.8806 26.2399 21.895C26.0833 21.967 25.9836 22.1685 26.0263 22.3269C26.0548 22.442 26.1404 22.4996 26.2542 22.4996C26.3111 22.4996 26.6245 22.4996 26.8239 22.4852C26.9237 22.4852 26.9949 22.4276 27.0518 22.3412C27.1515 22.1685 27.1374 21.895 27.0662 21.6791C27.2654 21.6647 27.4363 21.6791 27.5503 21.751C27.6927 21.8374 27.7639 21.9094 27.7924 21.9814C27.7783 21.9958 27.7639 22.0102 27.7354 22.0246C27.5788 22.0965 27.4791 22.2981 27.5218 22.4564C27.5503 22.5716 27.6359 22.6292 27.7497 22.6292C27.8066 22.6292 28.12 22.6292 28.3194 22.6148C28.4192 22.6148 28.4904 22.5572 28.5473 22.4708C28.6612 22.2837 28.6329 21.967 28.5473 21.751C28.4192 21.4344 28.1485 21.0169 27.9063 20.8729C27.7497 20.7866 27.6785 20.7866 27.5647 20.8154L27.5218 20.8298C27.351 20.8586 27.2369 20.3259 27.1942 20.1388C27.1657 20.038 27.123 19.9085 27.0662 19.7645C27.2369 19.8653 27.4791 19.9948 27.7783 20.1388C28.2624 20.3691 28.9033 20.5563 29.4588 20.5563C29.6724 20.5563 29.8718 20.5275 30.0427 20.4699C30.2421 20.3979 30.3846 20.2684 30.4558 20.0956C30.584 19.7213 30.3703 19.2751 30.3561 19.2319Z" fill="#003CA0"/>
<path fill-rule="evenodd" clip-rule="evenodd" d="M14.8456 18.5408C14.7602 18.6271 14.6178 18.5983 14.5466 18.5839C14.5466 18.5264 14.5181 18.368 14.6035 18.2817C14.689 18.1953 14.8314 18.2241 14.9026 18.2385C14.9169 18.3248 14.9311 18.4544 14.8456 18.5408Z" fill="#0064DC"/>
<path d="M33.6036 21.3624C33.6748 21.4056 33.7033 21.5207 33.6606 21.5927C33.1479 22.4132 34.0167 22.7731 34.4014 22.8595C34.5009 22.8883 34.5438 22.989 34.5152 23.1042C34.4582 23.2769 34.4582 23.5216 34.7288 23.7088C35.1988 24.0255 35.8256 23.7088 36.1673 23.9967C36.4308 24.2139 36.8391 24.748 37.1891 25.2393C37.6876 24.9501 38.2694 24.6341 38.8602 24.2936C39.1305 23.63 39.4319 22.9136 39.6283 22.4852C39.6995 22.4708 39.7707 22.4564 39.8277 22.4276C40.2265 22.2693 40.4117 21.8086 40.255 21.42C40.0985 21.0169 39.6425 20.8298 39.258 20.9881C38.8592 21.1464 38.6742 21.6071 38.8307 21.9958C38.8734 22.0821 38.9162 22.1685 38.9874 22.2405C38.8449 22.6579 38.6171 23.2481 38.4034 23.8095C38.0758 21.5351 37.7625 19.2031 37.848 16.6408C37.9761 16.5256 38.1328 16.3961 38.3181 16.2089C39.8277 14.7118 40.5114 15.5611 41.1523 15.2445C41.5227 15.0573 41.5511 14.7838 41.4941 14.5823C41.4656 14.4527 41.5368 14.3376 41.6652 14.3232C42.1637 14.2512 43.1178 13.9633 42.7475 12.9412C42.719 12.8405 42.7617 12.7397 42.8472 12.6821C43.3457 12.3942 43.6305 11.6889 43.2319 11.2282C42.8472 10.7676 42.0924 10.9403 41.7505 11.401C41.6935 11.4873 41.5796 11.5161 41.4799 11.4585C40.5398 10.9547 40.0698 11.7752 39.8989 12.2359C39.8562 12.351 39.7138 12.4086 39.6 12.351C39.4289 12.2647 39.144 12.2071 38.9304 12.5526C38.4746 13.3299 38.8734 14.4671 37.9192 15.3452C38.0046 14.3951 38.1471 13.4163 38.3749 12.3942L38.3893 12.3798C38.4746 12.0919 38.5318 11.732 38.6742 11.5449C39.3007 10.7532 40.3833 10.9115 40.7535 10.4077C41.0242 10.0334 40.9101 9.75992 40.7677 9.58718C40.6823 9.48641 40.6965 9.32807 40.8106 9.2417C41.252 8.925 42.2062 7.98932 41.195 7.34155C41.0954 7.28396 41.0954 7.14001 41.1667 7.03925C41.5083 6.50663 41.4515 5.61413 40.8247 5.427C40.2835 5.25426 39.5713 5.7149 39.4575 6.33389C39.4289 6.44905 39.3434 6.52102 39.2295 6.52102C38.0758 6.593 38.0189 7.42792 38.0616 8.0757C38.0758 8.21965 37.962 8.33481 37.8196 8.33481C37.606 8.33481 37.2925 8.42118 37.264 8.88182C37.2213 9.65916 37.6201 10.3789 37.6772 11.3434C37.6913 11.4873 37.6628 11.6745 37.6343 11.8616C37.5061 12.4086 37.4064 12.9268 37.3211 13.4451C37.1358 13.114 36.9507 12.7685 36.794 12.4518C36.8082 12.423 36.8367 12.3798 36.851 12.351C37.0363 11.9624 36.8652 11.4873 36.4666 11.3002C36.0819 11.1131 35.612 11.2858 35.4267 11.6889C35.2415 12.0775 35.4124 12.5526 35.8112 12.7397C35.9537 12.8117 36.0961 12.8261 36.2385 12.8117C36.5234 13.3011 36.851 13.8913 37.1787 14.4671C36.7228 18.1379 37.1501 21.0601 37.5916 24.155C37.606 24.2702 37.6201 24.3853 37.6343 24.4861C37.4635 24.3134 37.1358 23.9535 36.965 23.7807C36.267 23.0322 36.8652 22.442 36.609 21.6935C36.4949 21.3624 36.3241 21.1033 36.1817 21.1752C36.0819 21.2184 35.9822 21.1752 35.9537 21.0601C35.8256 20.585 35.5691 19.9804 34.7715 20.3115C34.7003 20.3403 34.615 20.3259 34.5721 20.2539C34.3301 19.8365 33.7318 19.7357 33.4185 20.0524C33.0483 20.4123 33.2333 21.0745 33.6036 21.3624Z" fill="#003CA0"/>
<path d="M43.7867 28.6605C44.2709 28.1711 44.1712 27.2786 43.6442 26.9475C43.0177 26.5588 42.1772 27.0771 41.9351 27.7105C41.8924 27.8256 41.7642 27.8976 41.636 27.8688C40.1548 27.5233 40.454 29.625 39.9839 30.0281C39.1863 30.7478 39.7702 31.9426 39.642 32.576C39.5282 33.1518 39.115 33.6844 38.8729 34.1019C39.1974 31.7445 39.1169 29.5775 38.8949 27.4957C38.6136 27.6586 38.3351 27.8176 38.0662 27.9742C38.1887 29.2222 38.2565 30.4989 38.2178 31.7699C37.9471 31.3092 37.6908 30.8774 37.5056 30.5463C37.5483 30.4743 37.5768 30.4023 37.5911 30.316C37.6767 29.8985 37.4202 29.4811 36.9929 29.3947C36.5798 29.3083 36.1668 29.5674 36.0813 29.9993C35.9959 30.4167 36.2524 30.8342 36.6797 30.9206C36.7509 30.935 36.8362 30.935 36.9074 30.935C37.2494 31.4244 37.7193 32.1585 38.1465 32.8495C38.0327 34.2602 37.7762 35.7285 37.292 37.3264C36.7935 39.0106 35.8677 40.3206 34.5433 41.2562C34.7853 40.9252 34.9419 40.5365 35.0131 40.0615C35.1698 38.9962 35.8819 39.3849 36.0388 38.55C36.11 38.1901 35.8819 38.0461 35.711 38.003C35.5971 37.9742 35.5403 37.859 35.5828 37.7438C35.7539 37.2544 35.8819 36.5778 34.9847 36.2755C34.8993 36.2467 34.8422 36.1604 34.8422 36.074C34.885 35.5558 34.4149 35.0376 33.9592 35.0663C33.4322 35.0807 33.1902 35.7717 33.3467 36.2755C33.3752 36.3619 33.3467 36.4771 33.2614 36.5059C32.3213 36.7938 32.8767 37.7438 33.1616 38.0893C33.2328 38.1757 33.2186 38.3052 33.119 38.3628C32.9766 38.4636 32.8198 38.6651 32.9622 39.0106C33.1902 39.6152 34.0589 39.2985 34.2868 39.7592C34.3722 39.9319 34.4292 41.2275 32.8198 42.1631C32.421 42.3935 32.0934 42.5086 31.7943 42.595C31.7943 42.7389 31.7943 43.0124 31.7373 43.3867C34.9277 42.5662 37.2065 40.5653 38.0896 37.5711C38.3176 36.8226 38.4884 36.1028 38.6308 35.3974C39.4711 34.7784 39.7132 33.6556 40.5108 33.0942C41.2657 32.5616 42.2912 32.7056 42.9891 32.1441C43.3879 31.8275 43.2454 31.5252 43.0889 31.338C43.0177 31.1941 43.046 31.0213 43.1885 30.935C43.8011 30.5607 44.5273 29.9705 43.7724 28.9772C43.7012 28.8765 43.7012 28.7613 43.7867 28.6605Z" fill="#003CA0"/>
<path d="M12.1396 42.4078C11.8405 42.3214 11.5556 42.2351 11.2708 42.1199C9.67551 41.1698 9.7183 39.8743 9.80375 39.7159C10.0316 39.2553 10.9004 39.572 11.1283 38.9674C11.2565 38.6075 11.1141 38.4204 10.9717 38.3196C10.8861 38.262 10.8577 38.1325 10.9289 38.0461C11.2138 37.7006 11.7693 36.7505 10.8292 36.4626C10.7437 36.4338 10.7153 36.3187 10.7437 36.2323C10.9004 35.7285 10.6725 35.0519 10.1313 35.0231C9.67551 35.0087 9.20556 35.527 9.24823 36.0308C9.24823 36.1316 9.19132 36.2035 9.1058 36.2323C8.20857 36.5346 8.35099 37.2112 8.50766 37.7006C8.55039 37.8158 8.49342 37.9309 8.37948 37.9597C8.20857 38.0029 7.98068 38.1469 8.0519 38.5067C8.22281 39.3417 8.9207 38.953 9.07737 40.0182C9.14859 40.4933 9.30526 40.8819 9.54739 41.213C8.22281 40.2917 7.31127 38.9674 6.79854 37.2832C6.32847 35.6997 6.07216 34.217 5.94397 32.8063C6.37125 32.1009 6.84126 31.3812 7.18303 30.8917C7.25425 30.8917 7.33976 30.8917 7.41097 30.8773C7.82396 30.791 8.09463 30.3735 8.00917 29.9561C7.92371 29.5386 7.51067 29.2651 7.09763 29.3515C6.68454 29.4378 6.41398 29.8553 6.49944 30.2727C6.51368 30.3591 6.54211 30.4311 6.58489 30.5031C6.39968 30.8485 6.14337 31.2804 5.87276 31.7267C5.82486 30.4685 5.89418 29.198 6.01746 27.9619C5.75619 27.8097 5.48587 27.6554 5.21286 27.4974C4.98865 29.5874 4.90597 31.7631 5.23183 34.1306C4.98971 33.6988 4.57667 33.1806 4.46273 32.6048C4.33448 31.9714 4.91849 30.7766 4.12084 30.0568C3.65089 29.6394 3.94999 27.5521 2.46874 27.8976C2.3405 27.9263 2.21237 27.84 2.16964 27.7392C1.92752 27.1058 1.08719 26.5876 0.460514 26.9763C-0.0807653 27.3074 -0.166166 28.1855 0.318087 28.6893C0.403543 28.7757 0.403543 28.9052 0.33233 29.006C-0.422536 29.9992 0.303844 30.5894 0.916227 30.9637C1.05865 31.0501 1.0872 31.2084 0.98744 31.3236C0.830826 31.4963 0.688398 31.813 1.08719 32.1297C1.78509 32.6911 2.81057 32.5472 3.56543 33.0798C4.36303 33.6556 4.60515 34.7784 5.44547 35.383C5.5879 36.0884 5.75876 36.8081 5.9867 37.5567C6.86975 40.5508 9.00616 42.523 12.1965 43.3291C12.1538 42.9116 12.1396 42.5806 12.1396 42.4078Z" fill="#003CA0"/>
<path d="M1.25801 12.7108C1.34341 12.7684 1.38619 12.8691 1.35771 12.9699C1.00164 13.9919 1.9559 14.2799 2.44016 14.3518C2.56834 14.3662 2.63956 14.4958 2.61107 14.6109C2.56834 14.8125 2.58258 15.086 2.9529 15.2731C3.59382 15.5898 4.27747 14.7405 5.7872 16.2376C5.9723 16.4103 6.11473 16.5543 6.25716 16.6694C6.34267 19.2174 6.02933 21.5638 5.70175 23.8382C5.4881 23.2768 5.26016 22.6866 5.11774 22.2691C5.17476 22.1972 5.23173 22.1252 5.27446 22.0244C5.43113 21.6214 5.24598 21.1751 4.84718 21.0168C4.44838 20.8584 4.00686 21.0455 3.85019 21.4486C3.69346 21.8517 3.87867 22.2979 4.27747 22.4563C4.34868 22.4851 4.4199 22.4995 4.47681 22.5138C4.66959 22.9342 4.96329 23.6318 5.22973 24.2846C5.81312 24.6211 6.38857 24.934 6.88439 25.2207C7.23812 24.7228 7.65578 24.1742 7.92361 23.9534C8.26544 23.6799 8.89206 23.9821 9.36213 23.6655C9.63274 23.4783 9.63274 23.2336 9.57577 23.0609C9.54729 22.9601 9.59001 22.8449 9.68971 22.8161C10.0743 22.7298 10.9431 22.3555 10.4303 21.5494C10.3876 21.4774 10.4161 21.3622 10.4873 21.3191C10.8576 21.0455 11.0428 20.369 10.6724 20.0091C10.3591 19.7068 9.76093 19.7932 9.5188 20.2106C9.47607 20.2826 9.39056 20.3114 9.31935 20.2682C8.536 19.9227 8.27968 20.5273 8.13725 21.0168C8.10871 21.1319 8.00907 21.1751 7.90937 21.1319C7.76694 21.0599 7.58179 21.3047 7.48209 21.6501C7.22572 22.3987 7.83816 22.9889 7.12602 23.7374C6.95511 23.9246 6.62752 24.2701 6.45661 24.4428C6.4708 24.3276 6.4851 24.2269 6.49934 24.1117C6.94086 21.0312 7.36815 18.0946 6.91238 14.4238C7.22572 13.848 7.5533 13.2578 7.8524 12.7684C7.99483 12.7828 8.13725 12.7684 8.27968 12.6964C8.66424 12.5093 8.83515 12.0486 8.66424 11.6455C8.47908 11.2569 8.02331 11.0841 7.62452 11.2569C7.22572 11.4296 7.06905 11.9047 7.23996 12.3077C7.25415 12.3365 7.28269 12.3797 7.29693 12.4085C7.14026 12.7108 6.94086 13.0563 6.76995 13.4017C6.68444 12.8835 6.5848 12.3509 6.45661 11.8183C6.42813 11.6312 6.39958 11.4584 6.41388 11.3001C6.4708 10.3356 6.86965 9.61584 6.82687 8.8385C6.79844 8.37786 6.4851 8.29149 6.27146 8.29149C6.12903 8.29149 6.02933 8.17633 6.02933 8.03238C6.07206 7.39899 6.01509 6.54968 4.86142 6.47771C4.74748 6.47771 4.64778 6.39133 4.63354 6.29057C4.5196 5.67158 3.79322 5.21094 3.26618 5.38368C2.63956 5.58521 2.58258 6.46331 2.92441 6.99593C2.98132 7.09669 2.98132 7.24065 2.89592 7.29823C1.88469 7.93161 2.8389 8.86729 3.28048 9.19838C3.39442 9.28475 3.40861 9.4431 3.32321 9.54386C3.18078 9.7166 3.06684 9.99011 3.33739 10.3644C3.70776 10.8826 4.79021 10.7099 5.41689 11.5016C5.55932 11.6887 5.60205 12.0486 5.70175 12.3365C5.70175 12.3509 5.71599 12.3509 5.71599 12.3509C5.94387 13.373 6.0863 14.3518 6.17176 15.3019C5.21749 14.4238 5.61623 13.2866 5.16052 12.5093C4.94688 12.1494 4.66202 12.207 4.49111 12.3077C4.37717 12.3653 4.23474 12.3221 4.19196 12.1926C4.00686 11.7319 3.55103 10.9114 2.61107 11.4152C2.52561 11.4584 2.41161 11.444 2.3404 11.3576C2.01287 10.969 1.2722 10.8106 0.873455 11.2569C0.488845 11.7175 0.759513 12.4229 1.25801 12.7108Z" fill="#003CA0"/>
<path d="M41.5261 21.8849C40.2715 23.2179 37.7316 24.3405 36.4876 25.1757C35.9343 25.5473 35.2345 25.9813 34.7147 26.5263C34.0152 27.368 34.243 28.3111 34.9416 29.4854C35.703 28.8554 36.6649 28.3552 37.3338 27.9248C38.7108 27.0388 40.6784 26.1666 41.7217 24.8667C42.5748 23.8037 42.5062 22.947 42.6221 20.2974C42.6237 20.2624 42.6258 20.2273 42.6277 20.192C42.4199 20.7832 42.0414 21.3779 41.5261 21.8849Z" fill="#003CA0"/>
<path d="M2.57913 21.899C3.83366 23.232 6.3736 24.3548 7.61767 25.1899C8.17096 25.5616 8.87064 25.9955 9.39061 26.5405C10.09 27.382 9.86229 28.3253 9.16362 29.4995C8.40225 28.8694 7.44025 28.3694 6.7714 27.9389C5.39446 27.0531 3.42684 26.1806 2.38352 24.8807C1.53034 23.8179 1.59904 22.961 1.48311 20.3116C1.48154 20.2766 1.47949 20.2414 1.47754 20.2062C1.68534 20.7974 2.06377 21.392 2.57913 21.899Z" fill="#003CA0"/>
<path d="M28.3973 28.6041C28.2887 28.6697 28.2188 28.7984 28.1942 28.8518C28.2805 28.9244 28.3585 29.0153 28.4219 29.1224C28.4863 29.2313 28.5289 29.3456 28.5511 29.4583C28.6079 29.4616 28.7553 29.4612 28.8651 29.3948C28.9814 29.3244 28.9517 29.1276 28.9027 29.0382C28.9027 29.0382 28.5445 29.052 28.5444 29.0519C28.5444 29.0518 28.7259 28.7392 28.7259 28.7392C28.671 28.6533 28.5135 28.5338 28.3973 28.6041ZM28.8683 28.728L28.7123 28.9504L28.9799 28.9167L29.0519 28.7451L28.8683 28.728ZM28.9849 30.7058L27.9529 29.9988C27.9529 29.9988 27.781 30.4091 27.6608 30.2062C27.4723 29.8878 28.3476 29.6517 28.3434 30.1238C28.3434 30.1238 28.7323 29.9892 28.5408 29.6304C28.3283 29.2323 27.7865 29.5061 27.7865 29.5061C27.7865 29.5061 28.2816 29.1531 28.0348 28.7755C27.8126 28.4355 27.5114 28.7178 27.5114 28.7178C27.9248 28.9375 27.3051 29.6052 27.1167 29.2868C26.9965 29.0839 27.4356 29.1249 27.4356 29.1249L27.3076 27.8715C26.0504 28.8911 26.1787 29.3294 26.8659 29.6563C26.8487 29.7213 26.8377 29.7774 26.832 29.8248C26.2345 29.7836 26.3258 29.7329 26.3325 30.385C26.8979 30.6996 26.8105 30.757 27.0572 30.2052C27.1013 30.2227 27.1553 30.2395 27.22 30.2548C27.1799 31.0213 27.5014 31.3432 28.9849 30.7058ZM17.3006 29.8248C17.2948 29.7774 17.2839 29.7213 17.2666 29.6563C17.9538 29.3294 18.0822 28.8911 16.825 27.8715L16.6969 29.1249C16.6969 29.1249 17.136 29.0839 17.0159 29.2868C16.8273 29.6052 16.2076 28.9375 16.6211 28.7178C16.6211 28.7178 16.32 28.4355 16.0977 28.7755C15.851 29.1531 16.3459 29.5061 16.3459 29.5061C16.3459 29.5061 15.8041 29.2323 15.5916 29.6304C15.4003 29.9892 15.789 30.1238 15.789 30.1238C15.7849 29.6517 16.6601 29.8878 16.4717 30.2062C16.3516 30.4091 16.1796 29.9988 16.1796 29.9988L15.1475 30.7058C16.6311 31.3432 16.9525 31.0213 16.9125 30.2548C16.9772 30.2395 17.0313 30.2227 17.0753 30.2052C17.3221 30.757 17.2347 30.6996 17.8 30.385C17.8068 29.7329 17.8981 29.7836 17.3006 29.8248ZM15.0807 28.7451L15.1525 28.9167L15.4201 28.9504L15.2643 28.728L15.0807 28.7451ZM15.4068 28.7392C15.4068 28.7392 15.5881 29.0518 15.5882 29.0519C15.5879 29.052 15.2297 29.0382 15.2297 29.0382C15.1809 29.1276 15.1511 29.3244 15.2675 29.3948C15.3773 29.4612 15.5247 29.4616 15.5815 29.4583C15.6036 29.3456 15.6463 29.2313 15.7107 29.1224C15.7741 29.0153 15.8521 28.9244 15.9384 28.8518C15.9136 28.7984 15.8437 28.6697 15.7353 28.6041C15.6191 28.5338 15.4614 28.6533 15.4068 28.7392ZM28.5467 26.5446C29.5722 28.5887 29.3015 28.6031 30.384 30.7191C29.2732 31.3813 26.9088 33.1375 26.9088 33.1375C25.8263 31.1798 26.0827 31.1078 25.1142 29.2652L14.8167 37.4417L14.2897 36.7651L21.3683 31.1366L19.0183 29.2652C18.0498 31.1078 18.2919 31.1798 17.2237 33.1375C17.2237 33.1375 14.8594 31.3813 13.7485 30.7191C14.8309 28.6031 14.5603 28.6031 15.5858 26.5446L15.1443 26.1847C14.8594 26.5014 14.3324 26.4438 14.1473 26.0407L13.25 24.1262L15.3009 24.558C15.714 24.6444 15.9134 25.1338 15.6712 25.4937L22.052 30.5608L28.4327 25.4937C28.1906 25.1482 28.3758 24.6444 28.803 24.558L30.854 24.1262L29.9567 26.0407C29.7717 26.4294 29.2446 26.5014 28.9597 26.1847L28.5467 26.5446ZM22.4367 32.0003L29.3015 37.4417L29.8285 36.7651L23.1344 31.4389L22.4367 32.0003ZM21.6247 26.8037L21.0123 26.6309L20.8983 27.0484L21.6247 27.2499V28.2288H22.4793V27.4946L23.0917 27.6674L23.2056 27.2499L22.4793 27.0484V26.1127H23.6473V25.3066H22.4793V24.1982H21.6247V25.3066H20.4568V26.1127H21.6247V26.8037ZM23.6757 35.743C23.6757 36.6787 22.9208 37.4417 21.995 37.4417C21.0692 37.4417 20.3144 36.6787 20.3144 35.743C20.3144 35.7286 20.3144 35.6998 20.3144 35.6854C20.4995 36.0021 20.8414 36.2181 21.2402 36.2181C21.8383 36.2181 22.3226 35.7286 22.3226 35.124C22.3226 34.6634 22.0377 34.2603 21.6247 34.102C21.7529 34.0732 21.8668 34.0588 21.995 34.0588C22.9208 34.0588 23.6614 34.8073 23.6757 35.743Z" fill="#003CA0"/>
</g>
<defs>
<clipPath id="clip0_476_147">
<rect width="44.0998" height="48.3675" fill="white"/>
</clipPath>
</defs>
</svg>
