<svg width="45" height="49" viewBox="0 0 45 49" fill="none" xmlns="http://www.w3.org/2000/svg">
<path d="M10.2148 28.3272C10.3598 29.1798 10.3202 29.9969 10.2938 31.0261C10.2774 31.6563 10.1602 32.3856 9.8669 32.9941C9.12572 34.5305 8.06368 35.5436 7.05828 36.3961C6.78939 35.3415 6.60464 34.2975 6.49609 33.228C7.37869 32.5127 8.51516 31.6268 9.53864 29.8391C9.5382 29.8387 9.53775 29.8384 9.53736 29.838C9.87201 29.2774 10.0976 28.7782 10.2148 28.3272Z" fill="#003CA0"/>
<path d="M2.7561 21.3597C1.97136 20.4958 1.60122 19.4081 1.89352 18.6704C2.74831 17.346 4.50595 16.152 6.53995 15.2665C6.66268 16.5661 6.59719 19.4038 6.59301 19.4051C5.15461 19.855 3.74615 20.4895 2.7561 21.3597Z" fill="#003CA0"/>
<path d="M4.60112 38.8135C4.60035 38.8148 4.59951 38.8159 4.59878 38.8169C6.00236 41.0266 8.70109 42.0708 11.7683 42.5067C11.83 42.8621 11.8999 43.2694 11.9759 43.7115C12.081 44.3245 12.3921 45.6553 13.0507 45.6759C8.39465 45.5302 4.87179 44.0154 3.94601 40.2936C3.62499 39.003 3.5619 37.9892 3.6784 37.1596C3.84576 37.6683 4.15209 38.2179 4.60112 38.8135Z" fill="#003CA0"/>
<path d="M4.90136 38.3773C4.11895 37.3023 3.86552 36.428 4.12863 35.7221C4.48748 35.0312 5.00573 34.4939 5.58088 33.9886C5.71752 35.0327 5.92638 36.0595 6.21335 37.1008C5.70873 37.5236 5.2528 37.931 4.90136 38.3773Z" fill="#003CA0"/>
<path d="M7.50302 14.8774C8.30362 14.5786 9.12958 14.3278 9.94615 14.1359L10.9768 18.5119C10.0837 18.6035 8.86703 18.7941 7.60038 19.119C7.67955 17.6299 7.64834 16.2378 7.50302 14.8774Z" fill="#003CA0"/>
<path d="M33.8899 28.3127C33.7448 29.1656 33.7844 29.9825 33.8109 31.0118C33.8271 31.642 33.9445 32.3711 34.2377 32.9797C34.9788 34.5162 36.0409 35.5294 37.0464 36.3817C37.3152 35.3273 37.4999 34.2832 37.6086 33.2135C36.7259 32.4984 35.5894 31.6126 34.566 29.8248C34.5665 29.8243 34.5669 29.824 34.5673 29.8236C34.2326 29.2631 34.007 28.7638 33.8899 28.3127Z" fill="#003CA0"/>
<path d="M41.3493 21.3453C42.1341 20.4816 42.5042 19.3937 42.2118 18.656C41.3571 17.3316 39.5994 16.1374 37.5654 15.2523C37.4428 16.5517 37.5083 19.3894 37.5123 19.3907C38.9508 19.8406 40.3593 20.4751 41.3493 21.3453Z" fill="#003CA0"/>
<path d="M39.5033 38.7989C39.5042 38.8002 39.5049 38.8013 39.5056 38.8023C38.1021 41.0121 35.4034 42.0562 32.3361 42.4921C32.2744 42.8475 32.2046 43.255 32.1286 43.6968C32.0235 44.3099 31.7124 45.6407 31.0538 45.6613C35.7098 45.5158 39.2326 44.0008 40.1584 40.2788C40.4794 38.9885 40.5426 37.9745 40.426 37.145C40.2586 37.6538 39.9524 38.2034 39.5033 38.7989Z" fill="#003CA0"/>
<path d="M39.2035 38.3628C39.9858 37.2882 40.2393 36.4136 39.9761 35.7078C39.6174 35.0168 39.0991 34.4797 38.5239 33.9743C38.3874 35.0184 38.1784 36.0452 37.8914 37.0865C38.396 37.5095 38.8521 37.9167 39.2035 38.3628Z" fill="#003CA0"/>
<path d="M36.6027 14.863C35.8021 14.5642 34.9762 14.3136 34.1595 14.1215L33.1289 18.4975C34.0221 18.5891 35.2387 18.7797 36.5053 19.1046C36.426 17.6154 36.4573 16.2235 36.6027 14.863Z" fill="#003CA0"/>
<path d="M30.641 10.9117C29.7295 11.6602 29.117 12.8838 28.4334 14.568C28.2482 15.0143 28.12 15.2446 27.8352 15.1438C26.2542 14.6256 24.189 14.2657 22.0526 14.2657C19.9162 14.2657 17.851 14.64 16.2701 15.1438C15.9852 15.2302 15.857 14.9999 15.6719 14.568C14.974 12.8838 14.3615 11.6602 13.4643 10.9117C13.7349 11.8761 13.1652 12.9702 13.094 13.2437C12.6667 14.9855 14.3046 15.9644 16.2558 15.9644C16.4125 15.9644 27.6785 15.9644 27.8209 15.9644C29.7864 15.9644 31.4102 14.9711 30.983 13.2437C30.9401 12.9702 30.3704 11.8761 30.641 10.9117Z" fill="#003CA0"/>
<path d="M31.1822 10.8828C30.9117 11.4443 31.1537 12.236 31.3816 12.8118C31.7946 12.7974 32.4784 12.855 33.8315 13.2292L34.5436 10.1199C31.8658 9.80321 31.3246 10.5662 31.1822 10.8828Z" fill="#003CA0"/>
<path d="M12.923 10.8827C12.7806 10.566 12.2394 9.81748 9.57599 10.1054L10.2881 13.2147C11.6412 12.8404 12.3248 12.7829 12.7379 12.7973C12.9516 12.2359 13.1936 11.4441 12.923 10.8827Z" fill="#003CA0"/>
<path d="M18.6201 43.7323C18.9477 43.9771 19.261 44.2074 19.4889 44.3657C19.5316 43.1997 19.8023 42.4512 19.9732 42.0625C18.6343 41.17 15.9425 40.4647 13.8488 40.9397C15.1306 41.1988 16.8825 42.4368 18.6201 43.7323Z" fill="#003CA0"/>
<path d="M30.328 43.315C31.0117 43.1422 31.3535 42.7967 31.3394 42.2209C31.3394 41.6595 31.0972 41.5588 31.0117 41.53C30.3138 41.2421 28.6616 42.149 27.4795 43.2142C28.505 43.4157 29.5447 43.5021 30.328 43.315Z" fill="#003CA0"/>
<path d="M16.9103 43.1135C15.6854 42.2642 14.2754 41.4005 13.4209 41.4005C13.2784 41.4005 13.1646 41.4292 13.0506 41.4724C12.8085 41.5876 12.6661 41.8467 12.6233 42.2786C12.5948 42.5377 12.6661 42.7392 12.8369 42.8975C13.3782 43.3726 14.8451 43.4446 16.9103 43.1135Z" fill="#003CA0"/>
<path d="M26.8952 43.0847C27.5361 42.4657 28.3194 41.8755 29.0743 41.4869C29.4731 41.2709 29.9716 41.055 30.4559 40.9974C28.3481 40.436 25.5707 41.127 24.1748 42.0483C24.5594 42.3218 25.6561 42.768 26.8952 43.0847Z" fill="#003CA0"/>
<path d="M31.7944 42.5951C31.7089 43.0846 31.3814 43.5596 30.4413 43.7899C28.8177 44.193 25.7697 43.4588 24.3312 42.7103C24.431 43.1421 24.5164 43.7467 24.5023 44.6248C24.5023 44.7688 23.9894 45.287 23.9894 45.287C24.1033 43.4732 23.733 42.3792 23.6333 42.2065C23.6191 42.1921 23.6048 42.1633 23.5906 42.1489C23.5478 42.1345 23.5194 42.1201 23.4766 42.1201C22.5224 42.1201 21.0269 42.1201 20.6281 42.1201C20.5854 42.1201 20.5284 42.1345 20.4857 42.1633C20.3147 42.48 19.9444 43.4012 19.9872 45.2006C19.9872 45.2006 19.5314 45.0135 18.6626 44.3801C18.4062 44.193 17.7938 43.7323 17.4804 43.502C15.6859 43.8331 13.3928 44.0634 12.5097 43.2429C12.2819 43.0414 12.1679 42.7823 12.1394 42.48C8.90633 42.0913 8.46475 45.4022 12.6949 45.6469C13.6064 47.4607 16.3553 46.7409 18.3492 46.1795C19.1326 46.9712 19.7735 48.3676 19.7735 48.3676C20.5854 47.9645 21.212 47.3023 21.682 46.6689C22.2946 47.1872 23.3342 47.8493 24.9579 48.2956C24.9579 48.2956 24.9579 47.144 25.2997 45.9924C27.3508 46.6401 30.071 47.3743 31.0539 45.6613C35.4263 45.4597 31.7944 42.6095 31.7944 42.5951Z" fill="#003CA0"/>
<path fill-rule="evenodd" clip-rule="evenodd" d="M22.0962 12.3513C24.1614 12.3513 26.1126 12.6968 27.8787 13.3302C28.4201 12.5096 29.6448 10.3936 29.6448 8.26308C29.6448 5.97426 26.5969 4.72189 24.9163 4.66431C24.9163 4.66431 22.0392 9.9617 22.0392 9.9761L19.1622 4.66431C17.4815 4.72189 14.4336 5.97426 14.4336 8.26308C14.4336 10.4223 15.687 12.5672 16.2282 13.3589C18.0228 12.7112 20.0025 12.3513 22.0962 12.3513Z" fill="#CFA406"/>
<path fill-rule="evenodd" clip-rule="evenodd" d="M23.8747 2.50493L22.0516 0.00017786L20.2285 2.50493L22.0516 6.6795L23.8747 2.50493Z" fill="#CFA406"/>
<path fill-rule="evenodd" clip-rule="evenodd" d="M31.8084 15.5468H12.2958V35.6423C12.2958 37.5713 13.8483 39.1403 15.7568 39.1403H18.1353C20.5424 39.1403 21.8527 40.1768 21.8527 41.4579H22.2657C22.2657 40.1768 23.5762 39.1403 25.9831 39.1403H28.3616C30.2703 39.1403 31.8226 37.5713 31.8226 35.6423V15.5468H31.8084Z" fill="#C82128"/>
<path fill-rule="evenodd" clip-rule="evenodd" d="M13.2363 16.4537H30.8545V23.0179H13.2363V16.4537Z" fill="white"/>
<path d="M14.5034 19.2895C14.4749 19.2319 14.4179 19.2031 14.3467 19.2175L14.0904 19.2607C14.0476 19.2751 14.0192 19.2895 13.9907 19.3327C13.8197 19.6349 13.8197 19.7069 13.8768 19.7645C13.9194 19.8077 14.1758 19.7645 14.4749 19.4622C14.5318 19.419 14.5461 19.347 14.5034 19.2895Z" fill="#C82128"/>
<path d="M30.3561 19.232C30.342 19.1888 30.2991 19.16 30.2564 19.16C30.2137 19.1456 30.1709 19.16 30.1424 19.1888C30.1424 19.1888 29.8006 19.4335 28.9318 19.4047C28.348 19.3759 27.7354 19.1888 27.0233 18.9585C26.4964 18.7857 25.8981 18.5986 25.2002 18.4402C23.4626 17.9796 21.2122 18.2963 19.5601 18.5266C19.1328 18.5842 18.7483 18.6418 18.4349 18.6706C18.0219 18.7137 17.6231 18.5986 17.2955 18.3539C17.0676 18.1811 16.8825 18.0372 16.7258 17.8932C16.4552 17.6629 16.2415 17.4902 16.0136 17.375C15.9852 17.303 15.9567 17.231 15.9282 17.1591C15.8712 16.9431 15.7288 16.8856 15.6576 16.8568C15.5436 16.828 15.4297 16.8568 15.3442 16.9431C15.273 17.0151 15.2018 17.1303 15.1306 17.231C15.0451 17.2454 14.9739 17.2598 14.8742 17.2886C14.86 17.2742 14.8315 17.2454 14.8173 17.231C14.6606 17.0727 14.5182 17.0727 14.4469 17.0871C14.333 17.1159 14.2475 17.1879 14.2048 17.303C14.1479 17.4614 14.1336 17.7061 14.1479 17.8788C14.0767 18.0372 14.0482 18.1955 14.0054 18.3683C13.977 18.5122 13.9485 18.6562 13.8915 18.8001C13.7776 19.0736 13.7064 19.2752 13.7064 19.2895C13.6779 19.3615 13.7064 19.4335 13.7776 19.4623C13.7918 19.4623 13.977 19.5631 14.2475 19.5775C14.5751 19.5918 14.6748 19.5055 14.9454 19.3039C15.0167 19.2608 15.0879 19.2032 15.1876 19.1312C15.273 19.0736 15.4012 19.0736 15.4724 19.16C15.6006 19.2895 15.7858 19.5055 15.9709 19.7358C16.0136 19.7934 16.0564 19.851 16.1133 19.9229C16.1988 20.0381 16.27 20.1533 16.3697 20.2684C16.1418 20.4699 15.8285 20.7291 15.4724 20.9882C15.3158 21.1177 15.1591 21.1897 14.86 21.2041C14.746 21.2041 14.6036 21.3337 14.5751 21.4632C14.5609 21.5352 14.5894 21.6072 14.6606 21.6359C14.7318 21.6791 14.86 21.6935 14.9739 21.6935C15.1448 21.6935 15.3442 21.6647 15.4724 21.6503C15.5721 21.6359 16.4552 21.2617 17.1246 20.9018C17.1958 20.9306 17.267 20.9738 17.3525 21.0026C17.1246 21.1897 16.8255 21.4344 16.4979 21.6935C16.3412 21.8231 16.1846 21.8951 15.8855 21.9095C15.7715 21.9095 15.6291 22.039 15.6006 22.1686C15.5864 22.2405 15.6148 22.3125 15.6861 22.3413C15.7573 22.3845 15.8855 22.3989 15.9994 22.3989C16.1703 22.3989 16.3697 22.3701 16.4979 22.3557C16.6261 22.3269 18.3779 21.5928 18.791 21.1609C18.9049 21.1465 19.0189 21.1321 19.1328 21.1177C20.1725 20.9594 20.9416 20.6859 21.6253 20.4556C22.3089 20.2252 22.8929 20.0093 23.5623 19.9949C24.5025 19.9661 24.9581 20.5131 25.357 20.9882C25.4995 21.1609 25.6275 21.3193 25.7699 21.4488C25.8411 21.5064 25.9267 21.564 25.998 21.5928L26.0548 21.6216C26.1972 21.7079 26.2684 21.7799 26.2969 21.8519C26.2828 21.8663 26.2684 21.8807 26.2399 21.8951C26.0833 21.967 25.9836 22.1686 26.0263 22.3269C26.0548 22.4421 26.1404 22.4997 26.2542 22.4997C26.3111 22.4997 26.6245 22.4997 26.8239 22.4853C26.9237 22.4853 26.9949 22.4277 27.0518 22.3413C27.1515 22.1686 27.1374 21.8951 27.0662 21.6791C27.2654 21.6647 27.4363 21.6791 27.5503 21.7511C27.6927 21.8375 27.7639 21.9095 27.7924 21.9814C27.7783 21.9958 27.7639 22.0102 27.7354 22.0246C27.5788 22.0966 27.4791 22.2981 27.5218 22.4565C27.5503 22.5716 27.6359 22.6292 27.7497 22.6292C27.8066 22.6292 28.12 22.6292 28.3194 22.6148C28.4192 22.6148 28.4904 22.5572 28.5473 22.4709C28.6612 22.2837 28.6329 21.967 28.5473 21.7511C28.4192 21.4344 28.1485 21.017 27.9063 20.873C27.7497 20.7866 27.6785 20.7866 27.5647 20.8154L27.5218 20.8298C27.351 20.8586 27.2369 20.326 27.1942 20.1389C27.1657 20.0381 27.123 19.9085 27.0662 19.7646C27.2369 19.8654 27.4791 19.9949 27.7783 20.1389C28.2624 20.3692 28.9033 20.5563 29.4588 20.5563C29.6724 20.5563 29.8718 20.5275 30.0427 20.4699C30.2421 20.398 30.3846 20.2684 30.4558 20.0957C30.584 19.7214 30.3703 19.2752 30.3561 19.232Z" fill="#003CA0"/>
<path fill-rule="evenodd" clip-rule="evenodd" d="M14.8456 18.5408C14.7602 18.6272 14.6178 18.5984 14.5466 18.584C14.5466 18.5264 14.5181 18.3681 14.6035 18.2817C14.689 18.1953 14.8314 18.2241 14.9026 18.2385C14.9169 18.3249 14.9311 18.4545 14.8456 18.5408Z" fill="#C82128"/>
<path d="M33.6036 21.3625C33.6748 21.4057 33.7033 21.5208 33.6606 21.5928C33.1479 22.4133 34.0167 22.7732 34.4014 22.8596C34.5009 22.8884 34.5438 22.9891 34.5152 23.1043C34.4582 23.277 34.4582 23.5218 34.7288 23.7089C35.1988 24.0256 35.8256 23.7089 36.1673 23.9968C36.4308 24.214 36.8391 24.7481 37.1891 25.2394C37.6876 24.9502 38.2694 24.6342 38.8602 24.2938C39.1305 23.6302 39.4319 22.9137 39.6283 22.4853C39.6995 22.4709 39.7707 22.4565 39.8277 22.4277C40.2265 22.2694 40.4117 21.8087 40.255 21.4201C40.0985 21.017 39.6425 20.8299 39.258 20.9882C38.8592 21.1466 38.6742 21.6072 38.8307 21.9959C38.8734 22.0822 38.9162 22.1686 38.9874 22.2406C38.8449 22.6581 38.6171 23.2483 38.4034 23.8097C38.0758 21.5352 37.7625 19.2032 37.848 16.6409C37.9761 16.5257 38.1328 16.3962 38.3181 16.209C39.8277 14.712 40.5114 15.5613 41.1523 15.2446C41.5227 15.0574 41.5511 14.7839 41.4941 14.5824C41.4656 14.4528 41.5368 14.3377 41.6652 14.3233C42.1637 14.2513 43.1178 13.9634 42.7475 12.9414C42.719 12.8406 42.7617 12.7398 42.8472 12.6822C43.3457 12.3943 43.6305 11.689 43.2319 11.2283C42.8472 10.7677 42.0924 10.9404 41.7505 11.4011C41.6935 11.4875 41.5796 11.5162 41.4799 11.4587C40.5398 10.9548 40.0698 11.7754 39.8989 12.236C39.8562 12.3512 39.7138 12.4087 39.6 12.3512C39.4289 12.2648 39.144 12.2072 38.9304 12.5527C38.4746 13.33 38.8734 14.4672 37.9192 15.3453C38.0046 14.3953 38.1471 13.4164 38.3749 12.3943L38.3893 12.38C38.4746 12.092 38.5318 11.7322 38.6742 11.545C39.3007 10.7533 40.3833 10.9117 40.7535 10.4078C41.0242 10.0336 40.9101 9.76004 40.7677 9.5873C40.6823 9.48654 40.6965 9.32819 40.8106 9.24182C41.252 8.92513 42.2062 7.98945 41.195 7.34167C41.0954 7.28409 41.0954 7.14014 41.1667 7.03937C41.5083 6.50675 41.4515 5.61426 40.8247 5.42712C40.2835 5.25438 39.5713 5.71502 39.4575 6.33401C39.4289 6.44917 39.3434 6.52115 39.2295 6.52115C38.0758 6.59312 38.0189 7.42804 38.0616 8.07582C38.0758 8.21977 37.962 8.33493 37.8196 8.33493C37.606 8.33493 37.2925 8.4213 37.264 8.88194C37.2213 9.65928 37.6201 10.379 37.6772 11.3435C37.6913 11.4875 37.6628 11.6746 37.6343 11.8617C37.5061 12.4087 37.4064 12.927 37.3211 13.4452C37.1358 13.1141 36.9507 12.7686 36.794 12.4519C36.8082 12.4231 36.8367 12.38 36.851 12.3512C37.0363 11.9625 36.8652 11.4875 36.4666 11.3003C36.0819 11.1132 35.612 11.2859 35.4267 11.689C35.2415 12.0777 35.4124 12.5527 35.8112 12.7398C35.9537 12.8118 36.0961 12.8262 36.2385 12.8118C36.5234 13.3012 36.851 13.8914 37.1787 14.4672C36.7228 18.138 37.1501 21.0602 37.5916 24.1551C37.606 24.2703 37.6201 24.3855 37.6343 24.4862C37.4635 24.3135 37.1358 23.9536 36.965 23.7809C36.267 23.0323 36.8652 22.4421 36.609 21.6936C36.4949 21.3625 36.3241 21.1034 36.1817 21.1754C36.0819 21.2185 35.9822 21.1754 35.9537 21.0602C35.8256 20.5852 35.5691 19.9806 34.7715 20.3117C34.7003 20.3404 34.615 20.326 34.5721 20.2541C34.3301 19.8366 33.7318 19.7358 33.4185 20.0525C33.0483 20.4124 33.2333 21.0746 33.6036 21.3625Z" fill="#CFA406"/>
<path d="M43.7867 28.6606C44.2709 28.1712 44.1712 27.2787 43.6442 26.9476C43.0177 26.5589 42.1772 27.0771 41.9351 27.7105C41.8924 27.8257 41.7642 27.8977 41.636 27.8689C40.1548 27.5234 40.454 29.6251 39.9839 30.0281C39.1863 30.7479 39.7702 31.9427 39.642 32.5761C39.5282 33.1519 39.115 33.6845 38.8729 34.1019C39.1974 31.7446 39.1169 29.5776 38.8949 27.4957C38.6136 27.6587 38.3351 27.8176 38.0662 27.9742C38.1887 29.2223 38.2565 30.499 38.2178 31.7699C37.9471 31.3093 37.6908 30.8774 37.5056 30.5463C37.5483 30.4744 37.5768 30.4024 37.5911 30.316C37.6767 29.8986 37.4202 29.4811 36.9929 29.3947C36.5798 29.3084 36.1668 29.5675 36.0813 29.9993C35.9959 30.4168 36.2524 30.8343 36.6797 30.9206C36.7509 30.935 36.8362 30.935 36.9074 30.935C37.2494 31.4245 37.7193 32.1586 38.1465 32.8496C38.0327 34.2603 37.7762 35.7286 37.292 37.3264C36.7935 39.0107 35.8677 40.3206 34.5433 41.2563C34.7853 40.9252 34.9419 40.5365 35.0131 40.0615C35.1698 38.9963 35.8819 39.3849 36.0388 38.55C36.11 38.1901 35.8819 38.0462 35.711 38.003C35.5971 37.9742 35.5403 37.8591 35.5828 37.7439C35.7539 37.2545 35.8819 36.5779 34.9847 36.2756C34.8993 36.2468 34.8422 36.1604 34.8422 36.0741C34.885 35.5558 34.4149 35.0376 33.9592 35.0664C33.4322 35.0808 33.1902 35.7718 33.3467 36.2756C33.3752 36.362 33.3467 36.4771 33.2614 36.5059C32.3213 36.7938 32.8767 37.7439 33.1616 38.0894C33.2328 38.1758 33.2186 38.3053 33.119 38.3629C32.9766 38.4637 32.8198 38.6652 32.9622 39.0107C33.1902 39.6153 34.0589 39.2986 34.2868 39.7592C34.3722 39.932 34.4292 41.2275 32.8198 42.1632C32.421 42.3935 32.0934 42.5087 31.7943 42.595C31.7943 42.739 31.7943 43.0125 31.7373 43.3868C34.9277 42.5663 37.2065 40.5653 38.0896 37.5712C38.3176 36.8226 38.4884 36.1029 38.6308 35.3975C39.4711 34.7785 39.7132 33.6557 40.5108 33.0943C41.2657 32.5617 42.2912 32.7056 42.9891 32.1442C43.3879 31.8275 43.2454 31.5252 43.0889 31.3381C43.0177 31.1941 43.046 31.0214 43.1885 30.935C43.8011 30.5607 44.5273 29.9705 43.7724 28.9773C43.7012 28.8765 43.7012 28.7614 43.7867 28.6606Z" fill="#CFA406"/>
<path d="M12.1396 42.408C11.8405 42.3216 11.5556 42.2353 11.2708 42.1201C9.67551 41.17 9.7183 39.8745 9.80375 39.7161C10.0316 39.2555 10.9004 39.5722 11.1283 38.9676C11.2565 38.6077 11.1141 38.4206 10.9717 38.3198C10.8861 38.2622 10.8577 38.1327 10.9289 38.0463C11.2138 37.7008 11.7693 36.7507 10.8292 36.4628C10.7437 36.434 10.7153 36.3189 10.7437 36.2325C10.9004 35.7287 10.6725 35.0521 10.1313 35.0233C9.67551 35.0089 9.20556 35.5271 9.24823 36.031C9.24823 36.1317 9.19132 36.2037 9.1058 36.2325C8.20857 36.5348 8.35099 37.2114 8.50766 37.7008C8.55039 37.816 8.49342 37.9311 8.37948 37.9599C8.20857 38.0031 7.98068 38.147 8.0519 38.5069C8.22281 39.3418 8.9207 38.9532 9.07737 40.0184C9.14859 40.4934 9.30526 40.8821 9.54739 41.2132C8.22281 40.2919 7.31127 38.9676 6.79854 37.2833C6.32847 35.6999 6.07216 34.2172 5.94397 32.8065C6.37125 32.1011 6.84126 31.3814 7.18303 30.8919C7.25425 30.8919 7.33976 30.8919 7.41097 30.8775C7.82396 30.7912 8.09463 30.3737 8.00917 29.9562C7.92371 29.5388 7.51067 29.2653 7.09763 29.3516C6.68454 29.438 6.41398 29.8555 6.49944 30.2729C6.51368 30.3593 6.54211 30.4313 6.58489 30.5033C6.39968 30.8487 6.14337 31.2806 5.87276 31.7268C5.82486 30.4687 5.89418 29.1982 6.01746 27.9621C5.75619 27.8099 5.48587 27.6556 5.21286 27.4976C4.98865 29.5876 4.90597 31.7633 5.23183 34.1308C4.98971 33.699 4.57667 33.1807 4.46273 32.6049C4.33448 31.9715 4.91849 30.7768 4.12084 30.057C3.65089 29.6395 3.94999 27.5523 2.46874 27.8977C2.3405 27.9265 2.21237 27.8402 2.16964 27.7394C1.92752 27.106 1.08719 26.5878 0.460514 26.9764C-0.0807653 27.3075 -0.166166 28.1856 0.318087 28.6895C0.403543 28.7758 0.403543 28.9054 0.33233 29.0062C-0.422536 29.9994 0.303844 30.5896 0.916227 30.9639C1.05865 31.0503 1.0872 31.2086 0.98744 31.3238C0.830826 31.4965 0.688398 31.8132 1.08719 32.1299C1.78509 32.6913 2.81057 32.5474 3.56543 33.08C4.36303 33.6558 4.60515 34.7786 5.44547 35.3832C5.5879 36.0885 5.75876 36.8083 5.9867 37.5568C6.86975 40.551 9.00616 42.5232 12.1965 43.3293C12.1538 42.9118 12.1396 42.5807 12.1396 42.408Z" fill="#CFA406"/>
<path d="M1.25801 12.7108C1.34341 12.7684 1.38619 12.8692 1.35771 12.97C1.00164 13.992 1.9559 14.2799 2.44016 14.3519C2.56834 14.3663 2.63956 14.4958 2.61107 14.611C2.56834 14.8125 2.58258 15.086 2.9529 15.2732C3.59382 15.5899 4.27747 14.7406 5.7872 16.2376C5.9723 16.4104 6.11473 16.5543 6.25716 16.6695C6.34267 19.2174 6.02933 21.5638 5.70175 23.8383C5.4881 23.2768 5.26016 22.6867 5.11774 22.2692C5.17476 22.1972 5.23173 22.1252 5.27446 22.0245C5.43113 21.6214 5.24598 21.1752 4.84718 21.0168C4.44838 20.8585 4.00686 21.0456 3.85019 21.4487C3.69346 21.8517 3.87867 22.298 4.27747 22.4563C4.34868 22.4851 4.4199 22.4995 4.47681 22.5139C4.66959 22.9342 4.96329 23.6318 5.22973 24.2847C5.81312 24.6212 6.38857 24.934 6.88439 25.2208C7.23812 24.7228 7.65578 24.1742 7.92361 23.9534C8.26544 23.6799 8.89206 23.9822 9.36213 23.6655C9.63274 23.4784 9.63274 23.2337 9.57577 23.0609C9.54729 22.9602 9.59001 22.845 9.68971 22.8162C10.0743 22.7298 10.9431 22.3556 10.4303 21.5494C10.3876 21.4775 10.4161 21.3623 10.4873 21.3191C10.8576 21.0456 11.0428 20.369 10.6724 20.0092C10.3591 19.7069 9.76093 19.7932 9.5188 20.2107C9.47607 20.2827 9.39056 20.3115 9.31935 20.2683C8.536 19.9228 8.27968 20.5274 8.13725 21.0168C8.10871 21.132 8.00907 21.1752 7.90937 21.132C7.76694 21.06 7.58179 21.3047 7.48209 21.6502C7.22572 22.3987 7.83816 22.9889 7.12602 23.7375C6.95511 23.9246 6.62752 24.2701 6.45661 24.4429C6.4708 24.3277 6.4851 24.2269 6.49934 24.1118C6.94086 21.0312 7.36815 18.0946 6.91238 14.4239C7.22572 13.8481 7.5533 13.2579 7.8524 12.7684C7.99483 12.7828 8.13725 12.7684 8.27968 12.6965C8.66424 12.5093 8.83515 12.0487 8.66424 11.6456C8.47908 11.2569 8.02331 11.0842 7.62452 11.2569C7.22572 11.4297 7.06905 11.9047 7.23996 12.3078C7.25415 12.3366 7.28269 12.3798 7.29693 12.4085C7.14026 12.7108 6.94086 13.0563 6.76995 13.4018C6.68444 12.8836 6.5848 12.351 6.45661 11.8183C6.42813 11.6312 6.39958 11.4585 6.41388 11.3001C6.4708 10.3357 6.86965 9.6159 6.82687 8.83856C6.79844 8.37792 6.4851 8.29155 6.27146 8.29155C6.12903 8.29155 6.02933 8.17639 6.02933 8.03244C6.07206 7.39905 6.01509 6.54974 4.86142 6.47777C4.74748 6.47777 4.64778 6.3914 4.63354 6.29063C4.5196 5.67164 3.79322 5.211 3.26618 5.38374C2.63956 5.58527 2.58258 6.46337 2.92441 6.99599C2.98132 7.09676 2.98132 7.24071 2.89592 7.29829C1.88469 7.93167 2.8389 8.86735 3.28048 9.19844C3.39442 9.28481 3.40861 9.44316 3.32321 9.54392C3.18078 9.71666 3.06684 9.99017 3.33739 10.3644C3.70776 10.8827 4.79021 10.7099 5.41689 11.5017C5.55932 11.6888 5.60205 12.0487 5.70175 12.3366C5.70175 12.351 5.71599 12.351 5.71599 12.351C5.94387 13.373 6.0863 14.3519 6.17176 15.302C5.21749 14.4239 5.61623 13.2866 5.16052 12.5093C4.94688 12.1494 4.66202 12.207 4.49111 12.3078C4.37717 12.3654 4.23474 12.3222 4.19196 12.1926C4.00686 11.732 3.55103 10.9115 2.61107 11.4153C2.52561 11.4585 2.41161 11.4441 2.3404 11.3577C2.01287 10.969 1.2722 10.8107 0.873455 11.2569C0.488845 11.7176 0.759513 12.4229 1.25801 12.7108Z" fill="#CFA406"/>
<path d="M41.5261 21.8851C40.2715 23.2181 37.7316 24.3407 36.4876 25.1759C35.9343 25.5475 35.2345 25.9815 34.7147 26.5265C34.0152 27.3682 34.243 28.3113 34.9416 29.4855C35.703 28.8556 36.6649 28.3554 37.3338 27.925C38.7108 27.0389 40.6784 26.1667 41.7217 24.8669C42.5748 23.8039 42.5062 22.9471 42.6221 20.2976C42.6237 20.2626 42.6258 20.2275 42.6277 20.1922C42.4199 20.7834 42.0414 21.3781 41.5261 21.8851Z" fill="#003CA0"/>
<path d="M2.57913 21.8991C3.83366 23.2321 6.3736 24.3549 7.61767 25.19C8.17096 25.5616 8.87064 25.9955 9.39061 26.5405C10.09 27.3821 9.86229 28.3254 9.16362 29.4996C8.40225 28.8695 7.44025 28.3694 6.7714 27.939C5.39446 27.0531 3.42684 26.1806 2.38352 24.8808C1.53034 23.818 1.59904 22.961 1.48311 20.3116C1.48154 20.2766 1.47949 20.2415 1.47754 20.2062C1.68534 20.7974 2.06377 21.3921 2.57913 21.8991Z" fill="#003CA0"/>
<path d="M28.3973 28.6041C28.2887 28.6698 28.2188 28.7985 28.1942 28.8519C28.2805 28.9244 28.3585 29.0154 28.4219 29.1225C28.4863 29.2313 28.5289 29.3456 28.5511 29.4583C28.6079 29.4616 28.7553 29.4612 28.8651 29.3949C28.9814 29.3245 28.9517 29.1277 28.9027 29.0383C28.9027 29.0383 28.5445 29.0521 28.5444 29.052C28.5444 29.0518 28.7259 28.7393 28.7259 28.7393C28.671 28.6534 28.5135 28.5339 28.3973 28.6041ZM28.8683 28.7281L28.7123 28.9505L28.9799 28.9168L29.0519 28.7452L28.8683 28.7281ZM28.9849 30.7058L27.9529 29.9989C27.9529 29.9989 27.781 30.4091 27.6608 30.2063C27.4723 29.8879 28.3476 29.6518 28.3434 30.1238C28.3434 30.1238 28.7323 29.9892 28.5408 29.6305C28.3283 29.2323 27.7865 29.5061 27.7865 29.5061C27.7865 29.5061 28.2816 29.1532 28.0348 28.7756C27.8126 28.4356 27.5114 28.7178 27.5114 28.7178C27.9248 28.9375 27.3051 29.6053 27.1167 29.2869C26.9965 29.0839 27.4356 29.1249 27.4356 29.1249L27.3076 27.8716C26.0504 28.8912 26.1787 29.3295 26.8659 29.6564C26.8487 29.7213 26.8377 29.7775 26.832 29.8248C26.2345 29.7837 26.3258 29.733 26.3325 30.3851C26.8979 30.6996 26.8105 30.7571 27.0572 30.2053C27.1013 30.2227 27.1553 30.2396 27.22 30.2548C27.1799 31.0214 27.5014 31.3432 28.9849 30.7058ZM17.3006 29.8248C17.2948 29.7775 17.2839 29.7213 17.2666 29.6564C17.9538 29.3295 18.0822 28.8912 16.825 27.8716L16.6969 29.1249C16.6969 29.1249 17.136 29.0839 17.0159 29.2869C16.8273 29.6053 16.2076 28.9375 16.6211 28.7178C16.6211 28.7178 16.32 28.4356 16.0977 28.7756C15.851 29.1532 16.3459 29.5061 16.3459 29.5061C16.3459 29.5061 15.8041 29.2323 15.5916 29.6305C15.4003 29.9892 15.789 30.1238 15.789 30.1238C15.7849 29.6518 16.6601 29.8879 16.4717 30.2063C16.3516 30.4091 16.1796 29.9989 16.1796 29.9989L15.1475 30.7058C16.6311 31.3432 16.9525 31.0214 16.9125 30.2548C16.9772 30.2396 17.0313 30.2227 17.0753 30.2053C17.3221 30.7571 17.2347 30.6996 17.8 30.3851C17.8068 29.733 17.8981 29.7837 17.3006 29.8248ZM15.0807 28.7452L15.1525 28.9168L15.4201 28.9505L15.2643 28.7281L15.0807 28.7452ZM15.4068 28.7393C15.4068 28.7393 15.5881 29.0518 15.5882 29.052C15.5879 29.0521 15.2297 29.0383 15.2297 29.0383C15.1809 29.1277 15.1511 29.3245 15.2675 29.3949C15.3773 29.4612 15.5247 29.4616 15.5815 29.4583C15.6036 29.3456 15.6463 29.2313 15.7107 29.1225C15.7741 29.0154 15.8521 28.9244 15.9384 28.8519C15.9136 28.7985 15.8437 28.6698 15.7353 28.6041C15.6191 28.5339 15.4614 28.6534 15.4068 28.7393ZM28.5467 26.5446C29.5722 28.5887 29.3015 28.6031 30.384 30.7192C29.2732 31.3814 26.9088 33.1376 26.9088 33.1376C25.8263 31.1798 26.0827 31.1079 25.1142 29.2653L14.8167 37.4417L14.2897 36.7651L21.3683 31.1367L19.0183 29.2653C18.0498 31.1079 18.2919 31.1798 17.2237 33.1376C17.2237 33.1376 14.8594 31.3814 13.7485 30.7192C14.8309 28.6031 14.5603 28.6031 15.5858 26.5446L15.1443 26.1847C14.8594 26.5014 14.3324 26.4439 14.1473 26.0408L13.25 24.1262L15.3009 24.5581C15.714 24.6445 15.9134 25.1339 15.6712 25.4938L22.052 30.5609L28.4327 25.4938C28.1906 25.1483 28.3758 24.6445 28.803 24.5581L30.854 24.1262L29.9567 26.0408C29.7717 26.4295 29.2446 26.5014 28.9597 26.1847L28.5467 26.5446ZM22.4367 32.0004L29.3015 37.4417L29.8285 36.7651L23.1344 31.439L22.4367 32.0004ZM21.6247 26.8037L21.0123 26.631L20.8983 27.0484L21.6247 27.25V28.2288H22.4793V27.4947L23.0917 27.6674L23.2056 27.25L22.4793 27.0484V26.1128H23.6473V25.3066H22.4793V24.1982H21.6247V25.3066H20.4568V26.1128H21.6247V26.8037ZM23.6757 35.7431C23.6757 36.6788 22.9208 37.4417 21.995 37.4417C21.0692 37.4417 20.3144 36.6788 20.3144 35.7431C20.3144 35.7287 20.3144 35.6999 20.3144 35.6855C20.4995 36.0022 20.8414 36.2181 21.2402 36.2181C21.8383 36.2181 22.3226 35.7287 22.3226 35.1241C22.3226 34.6635 22.0377 34.2604 21.6247 34.102C21.7529 34.0733 21.8668 34.0589 21.995 34.0589C22.9208 34.0589 23.6614 34.8074 23.6757 35.7431Z" fill="#CFA406"/>
</svg>
