<svg width="24" height="24" viewBox="0 0 24 24" fill="none" xmlns="http://www.w3.org/2000/svg">
<path fill-rule="evenodd" clip-rule="evenodd" d="M20.5 18.1606V4.66819L16.5708 5.81372C15.8029 6.03761 14.9891 6.05275 14.2134 5.85758L9.01144 4.54885C8.76966 4.48802 8.51653 4.48841 8.27494 4.55L3.5 5.76721V19.3126L7.27272 18.1341C8.07938 17.8821 8.9407 17.8624 9.75805 18.0771L14.9767 19.4483C15.2302 19.5149 15.4966 19.514 15.7496 19.4455L20.5 18.1606ZM21.2611 19.5086L16.1412 20.8935C15.6353 21.0303 15.1024 21.0323 14.5956 20.8991L9.37687 19.5279C8.83196 19.3847 8.25775 19.3979 7.71998 19.5659L3.29817 20.9472C2.65426 21.1483 2 20.6673 2 19.9927V5.37867C2 4.92153 2.31 4.52259 2.75298 4.40966L7.90442 3.09648C8.3876 2.97331 8.89386 2.97252 9.37742 3.09418L14.5794 4.40291C15.0965 4.53302 15.639 4.52293 16.151 4.37367L20.7201 3.04157C21.3601 2.85499 22 3.33499 22 4.0016V18.5433C22 18.9951 21.6972 19.3907 21.2611 19.5086ZM9.23245 11.851C10.203 10.6345 10.5 10.0144 10.5 9.35768C10.5 8.60027 9.82843 7.98627 9 7.98627C8.17157 7.98627 7.5 8.60027 7.5 9.35768C7.5 10.1224 7.80363 10.6428 8.76829 11.8503C8.8869 11.9988 9.11394 11.9995 9.23245 11.851Z" fill="white"/>
</svg>
