<svg width="16" height="18" viewBox="0 0 16 18" fill="none" xmlns="http://www.w3.org/2000/svg">
<path fill-rule="evenodd" clip-rule="evenodd" d="M15.3465 1.85727L14.3915 0.815283C13.4686 -0.19174 11.9083 -0.271557 10.8874 0.636036L0.335571 10.0171C0.122122 10.2069 0 10.4788 0 10.7644V14.0032C0 14.5555 0.447715 15.0032 1 15.0032H4.09822C4.34478 15.0032 4.58266 14.9121 4.76616 14.7474L15.1733 5.40694C16.2084 4.47791 16.2863 2.88266 15.3465 1.85727ZM14.2407 2.87075L13.2857 1.82876C12.9165 1.42595 12.2924 1.39403 11.884 1.75706L10.3216 3.14611L12.6198 5.68317L14.1714 4.29062C14.5854 3.91901 14.6166 3.28091 14.2407 2.87075ZM1.5 10.989L9.20057 4.1428L11.5035 6.68509L3.90674 13.5032H1.5V10.989Z" fill="#003CA0"/>
<path d="M16 16.4999H0V17.9999H16V16.4999Z" fill="#003CA0"/>
</svg>
