<svg width="24" height="24" viewBox="0 0 24 24" fill="none" xmlns="http://www.w3.org/2000/svg">
<path fill-rule="evenodd" clip-rule="evenodd" d="M16.5555 1.38407C17.6294 0.310129 19.3706 0.310126 20.4446 1.38407L22.6161 3.55564C23.6901 4.62958 23.6901 6.37079 22.6161 7.44473L8.03034 22.0305C7.93095 22.1299 7.80562 22.1994 7.66866 22.231L1.16866 23.731C0.916689 23.7891 0.652537 23.7134 0.469684 23.5305C0.286832 23.3477 0.211074 23.0835 0.269221 22.8315L1.76922 16.3315C1.80083 16.1946 1.87029 16.0693 1.96968 15.9699L16.5555 1.38407ZM19.3839 2.44473C18.8957 1.95657 18.1043 1.95657 17.6161 2.44473L16.091 3.96986L20.0303 7.9092L21.5555 6.38407C22.0436 5.89591 22.0436 5.10446 21.5555 4.6163L19.3839 2.44473ZM18.9697 8.96986L15.0303 5.03052L4.09101 15.9699L8.03034 19.9092L18.9697 8.96986ZM2.00064 21.9996L3.12541 17.1256L6.87462 20.8748L2.00064 21.9996Z" fill="#003CA0"/>
</svg>
