<svg width="24" height="24" viewBox="0 0 24 24" fill="none" xmlns="http://www.w3.org/2000/svg">
<path fill-rule="evenodd" clip-rule="evenodd" d="M19.5 6C19.5 7.65685 18.1569 9 16.5 9C14.8431 9 13.5 7.65685 13.5 6C13.5 4.34315 14.8431 3 16.5 3C18.1569 3 19.5 4.34315 19.5 6ZM18 6C18 6.82843 17.3284 7.5 16.5 7.5C15.6716 7.5 15 6.82843 15 6C15 5.17157 15.6716 4.5 16.5 4.5C17.3284 4.5 18 5.17157 18 6Z" fill="#003CA0"/>
<path fill-rule="evenodd" clip-rule="evenodd" d="M7.5 15C9.15685 15 10.5 13.6569 10.5 12C10.5 10.3431 9.15685 9 7.5 9C5.84315 9 4.5 10.3431 4.5 12C4.5 13.6569 5.84315 15 7.5 15ZM7.5 13.5C8.32843 13.5 9 12.8284 9 12C9 11.1716 8.32843 10.5 7.5 10.5C6.67157 10.5 6 11.1716 6 12C6 12.8284 6.67157 13.5 7.5 13.5Z" fill="#003CA0"/>
<path d="M13.9233 12.2768C14.6457 11.5543 15.6256 11.1484 16.6473 11.1484C17.669 11.1484 18.6489 11.5543 19.3713 12.2768C20.0938 12.9992 20.4997 13.9791 20.4997 15.0008H21.9997C21.9997 13.5813 21.4358 12.2199 20.432 11.2161C19.4282 10.2123 18.0668 9.64844 16.6473 9.64844C15.2278 9.64844 13.8664 10.2123 12.8626 11.2161C11.8588 12.2199 11.2949 13.5813 11.2949 15.0008H12.7949C12.7949 13.9791 13.2008 12.9992 13.9233 12.2768Z" fill="#003CA0"/>
<path d="M13 21H11.5C11.5 18.7909 9.70914 17 7.5 17C5.29086 17 3.5 18.7909 3.5 21H2C2 17.9624 4.46243 15.5 7.5 15.5C10.5376 15.5 13 17.9624 13 21Z" fill="#003CA0"/>
</svg>
