<svg width="49" height="37" viewBox="0 0 49 37" fill="none" xmlns="http://www.w3.org/2000/svg">
<path d="M9.6368 22.0758C9.6368 21.161 10.3783 20.4195 11.2931 20.4195H21.5929C22.5076 20.4195 23.2491 21.161 23.2491 22.0758C23.2491 22.9905 22.5076 23.732 21.5929 23.732H11.2931C10.3783 23.732 9.6368 22.9905 9.6368 22.0758Z" fill="#939FC3"/>
<path d="M11.2931 13.264C10.3783 13.264 9.6368 14.0055 9.6368 14.9202C9.6368 15.835 10.3783 16.5765 11.2931 16.5765H34.6127C35.5274 16.5765 36.2689 15.835 36.2689 14.9202C36.2689 14.0055 35.5274 13.264 34.6127 13.264H11.2931Z" fill="#939FC3"/>
<path fill-rule="evenodd" clip-rule="evenodd" d="M4.62492 0.833496C2.18566 0.833496 0.208252 2.81091 0.208252 5.25016V31.7502C0.208252 34.1894 2.18566 36.1668 4.62492 36.1668H44.3749C46.8142 36.1668 48.7916 34.1894 48.7916 31.7502V5.25016C48.7916 2.81091 46.8142 0.833496 44.3749 0.833496H4.62492ZM44.3749 4.146H4.62492C4.0151 4.146 3.52075 4.64035 3.52075 5.25016V31.7502C3.52075 32.36 4.0151 32.8543 4.62492 32.8543H44.3749C44.9847 32.8543 45.4791 32.36 45.4791 31.7502V5.25016C45.4791 4.64035 44.9847 4.146 44.3749 4.146Z" fill="#939FC3"/>
</svg>
