<svg width="46" height="46" viewBox="0 0 46 46" fill="none" xmlns="http://www.w3.org/2000/svg">
<path d="M32.6266 18.5756C33.2612 17.941 33.2612 16.9121 32.6266 16.2775C31.992 15.6429 30.9631 15.6429 30.3285 16.2775L20.0701 26.536L15.5141 21.9801C14.8795 21.3455 13.8506 21.3455 13.216 21.9801C12.5814 22.6147 12.5814 23.6436 13.216 24.2782L18.921 29.9831C19.5556 30.6177 20.5845 30.6177 21.2191 29.9831L32.6266 18.5756Z" fill="#939FC3"/>
<path fill-rule="evenodd" clip-rule="evenodd" d="M18.3126 2.44381C19.3849 1.46573 20.9653 0.118652 22.9997 0.118652C25.034 0.118652 26.6149 1.46547 27.6876 2.44366C27.9257 2.66076 28.1387 2.86079 28.3404 3.05027C28.6686 3.35846 28.967 3.63874 29.2954 3.91915C29.8008 4.35086 30.2043 4.62499 30.5502 4.76904C30.9256 4.92522 31.4272 5.02476 32.0945 5.08441C32.549 5.12503 32.991 5.14205 33.476 5.16072L34.2772 5.19485C35.7015 5.26612 37.7654 5.41977 39.1721 6.82459C40.5788 8.23124 40.7339 10.296 40.8052 11.7211C40.8195 12.0069 40.8298 12.2729 40.8395 12.5271C40.858 13.0103 40.8749 13.4509 40.9153 13.9044C40.9746 14.5716 41.0737 15.073 41.2294 15.4485C41.3734 15.7949 41.6476 16.1986 42.0792 16.7041C42.3599 17.0328 42.6406 17.3317 42.9494 17.6604C43.1384 17.8616 43.338 18.0741 43.5544 18.3114C44.5325 19.3837 45.8796 20.964 45.8796 22.9985C45.8796 25.0328 44.5328 26.6137 43.5546 27.6864C43.3375 27.9245 43.1375 28.1375 42.948 28.3392C42.6398 28.6673 42.3595 28.9658 42.0791 29.2941C41.6473 29.7997 41.3731 30.2032 41.2291 30.5491C41.0729 30.9245 40.9735 31.4259 40.9138 32.0933C40.8732 32.5477 40.8562 32.9898 40.8375 33.4747C40.8278 33.7275 40.8176 33.992 40.8034 34.2759C40.7321 35.7002 40.5785 37.7642 39.1737 39.1709C37.767 40.5775 35.7022 40.7327 34.2772 40.804C33.9913 40.8183 33.7253 40.8285 33.4712 40.8383C32.988 40.8568 32.5473 40.8737 32.0938 40.9141C31.4265 40.9734 30.925 41.0725 30.5495 41.2283C30.2038 41.3724 29.8005 41.6464 29.2954 42.0779C28.967 42.3583 28.6686 42.6386 28.3404 42.9468C28.1387 43.1362 27.9257 43.3363 27.6876 43.5534C26.6149 44.5316 25.034 45.8784 22.9997 45.8784C20.9655 45.8784 19.3846 44.5316 18.3119 43.5534C18.0738 43.3363 17.8609 43.1363 17.6592 42.9469C17.331 42.6387 17.0325 42.3583 16.7041 42.0779C16.1985 41.6461 15.7951 41.3719 15.4491 41.2279C15.0737 41.0717 14.5723 40.9723 13.905 40.9126C13.4505 40.872 13.0085 40.855 12.5235 40.8363C12.2707 40.8266 12.0063 40.8164 11.7223 40.8022C10.298 40.7309 8.23409 40.5773 6.82737 39.1724C5.42071 37.7658 5.26554 35.701 5.19423 34.2759C5.17992 33.9901 5.16972 33.7242 5.15997 33.47C5.14143 32.9868 5.12453 32.5461 5.08419 32.0926C5.02483 31.4254 4.9258 30.9241 4.77011 30.5486C4.62604 30.2021 4.35189 29.7985 3.92026 29.293C3.6396 28.9643 3.35884 28.6654 3.05007 28.3366C2.86105 28.1354 2.66144 27.9229 2.44503 27.6856C1.46695 26.6133 0.119873 25.033 0.119873 22.9985C0.119873 20.9642 1.46669 19.3834 2.44488 18.3106C2.66198 18.0726 2.86201 17.8596 3.0515 17.6578C3.35968 17.3297 3.63996 17.0312 3.92037 16.7029C4.35208 16.1974 4.6263 15.7938 4.77034 15.4479C4.92653 15.0725 5.02598 14.5711 5.08563 13.9037C5.12371 13.4777 5.14105 13.0626 5.15845 12.6128L5.16194 12.5223C5.17167 12.2696 5.18186 12.0049 5.19607 11.7211C5.26734 10.2968 5.42177 8.23209 6.82659 6.82537C8.23324 5.41871 10.2973 5.26432 11.7223 5.19301C12.0081 5.1787 12.274 5.1685 12.5282 5.15875C13.0114 5.14021 13.4521 5.12331 13.9056 5.08297C14.5734 5.02356 15.075 4.92441 15.4506 4.76849C15.7968 4.62432 16.2003 4.35028 16.7053 3.91904C17.034 3.63837 17.3329 3.35761 17.6616 3.04884L18.3126 2.44381ZM16.6976 7.76973C17.5121 7.43101 18.2214 6.89806 18.8157 6.39061C19.1942 6.06743 19.601 5.68614 19.9731 5.33736C20.1612 5.16103 20.3405 4.99297 20.5028 4.84497C21.6467 3.80162 22.3684 3.36865 22.9997 3.36865C23.6312 3.36865 24.3537 3.80188 25.4978 4.84512C25.6604 4.99344 25.8402 5.16196 26.029 5.33882C26.4007 5.68719 26.807 6.06798 27.1847 6.3905C27.7786 6.89778 28.4877 7.43082 29.3015 7.76958C30.1275 8.11333 31.0123 8.25064 31.8052 8.3215C32.3405 8.36935 32.9255 8.39216 33.4573 8.4129C33.6894 8.42196 33.9115 8.43061 34.1147 8.44079C35.6844 8.51933 36.4681 8.71805 36.8748 9.12346C37.2813 9.53002 37.4807 10.3136 37.5593 11.8835C37.5695 12.0876 37.5782 12.3108 37.5873 12.5442C37.6079 13.0748 37.6306 13.659 37.6781 14.1924C37.7486 14.985 37.8857 15.8706 38.2285 16.6964C38.5672 17.5109 39.1002 18.2202 39.6076 18.8145C39.9308 19.193 40.3121 19.5998 40.6609 19.9719C40.8373 20.1601 41.0053 20.3393 41.1533 20.5016C42.1966 21.6454 42.6296 22.3672 42.6296 22.9985C42.6296 23.63 42.1964 24.3525 41.1531 25.4965C41.0048 25.6592 40.8363 25.839 40.6595 26.0277C40.3111 26.3995 39.9303 26.8058 39.6077 27.1834C39.1005 27.7774 38.5674 28.4865 38.2287 29.3002C37.8849 30.1262 37.7476 31.0111 37.6767 31.804C37.6289 32.3392 37.6061 32.9241 37.5854 33.4558L37.5852 33.4608C37.5787 33.626 37.5725 33.7861 37.5657 33.9378L37.5575 34.1135C37.4789 35.6832 37.2802 36.4669 36.8748 36.8736C36.4682 37.2801 35.6847 37.4795 34.1147 37.5581C33.9106 37.5683 33.6874 37.577 33.454 37.5861C32.9234 37.6067 32.3393 37.6294 31.8059 37.6768C31.0133 37.7474 30.1271 37.8847 29.3013 38.2275C28.4875 38.5663 27.7786 39.0992 27.1847 39.6065C26.8071 39.929 26.4009 40.3097 26.0292 40.658C25.8404 40.8349 25.6604 41.0036 25.4978 41.1519C24.3537 42.1951 23.6312 42.6284 22.9997 42.6284C22.3683 42.6284 21.6458 42.1951 20.5017 41.1519C20.339 41.0036 20.1592 40.835 19.9704 40.6581C19.5987 40.3098 19.1924 39.929 18.8148 39.6065C18.2208 39.0992 17.5117 38.5662 16.698 38.2274C15.872 37.8837 14.9871 37.7464 14.1943 37.6755C13.6591 37.6277 13.0741 37.6049 12.5424 37.5841C12.3103 37.5751 12.088 37.5664 11.8847 37.5562C10.3151 37.4777 9.53139 37.279 9.12468 36.8736C8.71813 36.467 8.51873 35.6835 8.44016 34.1135C8.42994 33.9092 8.42126 33.6859 8.41218 33.4523C8.39155 32.9217 8.36886 32.3381 8.3214 31.8046C8.25089 31.0121 8.11379 30.1265 7.77095 29.3006C7.43224 28.4861 6.89928 27.7768 6.39183 27.1825C6.06863 26.804 5.68732 26.3972 5.33852 26.0251C5.16225 25.837 4.99414 25.6576 4.84619 25.4954C3.80284 24.3516 3.36987 23.6298 3.36987 22.9985C3.36987 22.367 3.8031 21.6445 4.84634 20.5005C4.99467 20.3378 5.1632 20.158 5.34006 19.9693C5.68844 19.5975 6.06919 19.1912 6.39172 18.8136C6.89901 18.2196 7.43204 17.5105 7.7708 16.6968C8.11455 15.8708 8.25186 14.9859 8.32272 14.1931C8.37057 13.6578 8.39338 13.0727 8.41412 12.541C8.42318 12.3088 8.43184 12.0868 8.44201 11.8835L8.44794 11.7706C8.53035 10.2755 8.72925 9.5198 9.12508 9.12307C9.52207 8.72644 10.2782 8.52708 11.7741 8.44475L11.8847 8.43894C12.089 8.42872 12.3123 8.42004 12.5459 8.41096C13.0766 8.39033 13.6602 8.36764 14.1936 8.32018C14.9862 8.24967 15.8718 8.11257 16.6976 7.76973Z" fill="#939FC3"/>
</svg>
