<svg width="20" height="17" viewBox="0 0 20 17" fill="none" xmlns="http://www.w3.org/2000/svg">
<path fill-rule="evenodd" clip-rule="evenodd" d="M0 3C0 1.34279 1.34279 0 3 0H17C18.6572 0 20 1.34279 20 3V11C20 12.6572 18.6572 14 17 14H13.3107L10.5303 16.7803C10.2374 17.0732 9.76256 17.0732 9.46967 16.7803L6.68934 14H3C1.34279 14 0 12.6572 0 11V3ZM3 1.5C2.17121 1.5 1.5 2.17121 1.5 3V11C1.5 11.8288 2.17121 12.5 3 12.5H7C7.19891 12.5 7.38968 12.579 7.53033 12.7197L10 15.1893L12.4697 12.7197C12.6103 12.579 12.8011 12.5 13 12.5H17C17.8288 12.5 18.5 11.8288 18.5 11V3C18.5 2.17121 17.8288 1.5 17 1.5H3Z" fill="#939FC3"/>
</svg>
