<svg width="14" height="18" viewBox="0 0 14 18" fill="none" xmlns="http://www.w3.org/2000/svg">
<path fill-rule="evenodd" clip-rule="evenodd" d="M11 16.5H4V18H11C12.6569 18 14 16.6569 14 15L14 3C14 1.34315 12.6569 7.56806e-07 11 6.11959e-07L4 0V1.5L11 1.5C11.8284 1.5 12.5 2.17157 12.5 3L12.5 15C12.5 15.8284 11.8284 16.5 11 16.5ZM5.11252 12.1835L6.17209 13.2431L7.23275 12.1824L9.70762 9.70756C10.0981 9.31704 10.0981 8.68387 9.70762 8.29335L7.23275 5.81848L6.17209 4.75782L5.11252 5.81739L7.54514 8.25L0 8.25V9.75L7.54604 9.75L5.11252 12.1835Z" fill="#939FC3"/>
</svg>
