<svg width="52" height="52" viewBox="0 0 52 52" fill="none" xmlns="http://www.w3.org/2000/svg">
<path fill-rule="evenodd" clip-rule="evenodd" d="M3.27124 8.104C3.27124 7.20654 3.99878 6.479 4.89624 6.479H18.9735C21.5891 6.4806 23.1086 7.99919 24.1696 9.06022C24.1966 9.08727 24.2234 9.11402 24.2499 9.14044C25.3734 10.2622 26.033 10.85 27.23 10.85L40.626 10.8524C41.5234 10.8526 42.2507 11.58 42.2507 12.4774V17.7761H50.1614C50.7144 17.7761 51.2295 18.0574 51.5285 18.5227C51.8275 18.988 51.8693 19.5734 51.6394 20.0765L42.6967 39.6472C41.663 41.9113 39.402 43.3646 36.9126 43.3646H8.44691C5.58948 43.3646 3.27124 41.0463 3.27124 38.1889V8.104ZM39.0007 17.7761V14.1021L27.23 14.1C24.6134 14.0999 23.0943 12.5811 22.0331 11.5198C22.0063 11.493 21.9798 11.4665 21.9536 11.4404C20.8298 10.3184 20.17 9.72986 18.9729 9.729H6.52124V37.3465L14.1479 18.7836C14.3983 18.174 14.992 17.7761 15.651 17.7761H39.0007ZM8.89757 40.1146H36.9126C38.13 40.1146 39.2351 39.404 39.7401 38.2976L47.6322 21.0261H16.7402L8.89757 40.1146Z" fill="#939FC3"/>
</svg>
