<svg width="44" height="36" viewBox="0 0 44 36" fill="none" xmlns="http://www.w3.org/2000/svg">
<path fill-rule="evenodd" clip-rule="evenodd" d="M0.333252 2.83317C0.333252 1.63655 1.3033 0.666504 2.49992 0.666504H41.4999C42.6965 0.666504 43.6666 1.63655 43.6666 2.83317V28.8332C43.6666 32.423 40.7564 35.3332 37.1666 35.3332H6.83325C3.2434 35.3332 0.333252 32.423 0.333252 28.8332V2.83317ZM3.58325 8.18972V28.8332C3.58325 30.6281 5.03833 32.0832 6.83325 32.0832H37.1666C38.9615 32.0832 40.4166 30.6281 40.4166 28.8332V8.18972L23.0957 24.0071C22.4751 24.5738 21.5247 24.5738 20.9041 24.0071L3.58325 8.18972ZM40.2764 3.9165H3.72343L21.9999 20.6065L40.2764 3.9165Z" fill="#939FC3"/>
</svg>
