<svg width="52" height="52" viewBox="0 0 52 52" fill="none" xmlns="http://www.w3.org/2000/svg">
<path fill-rule="evenodd" clip-rule="evenodd" d="M17.3345 37.8047C18.232 37.8047 18.9595 38.5322 18.9595 39.4297V45.4607L25.5614 43.4018C25.878 43.3031 26.2172 43.3036 26.5335 43.4033L33.0425 45.454V39.4297C33.0425 38.5322 33.7701 37.8047 34.6675 37.8047C35.565 37.8047 36.2925 38.5322 36.2925 39.4297V47.6697C36.2925 48.1873 36.0459 48.6739 35.6285 48.9801C35.2111 49.2862 34.6729 49.3751 34.1792 49.2196L26.0427 46.6561L17.8183 49.221C17.325 49.3748 16.7879 49.2849 16.3716 48.9787C15.9553 48.6724 15.7095 48.1865 15.7095 47.6697V39.4297C15.7095 38.5322 16.4371 37.8047 17.3345 37.8047Z" fill="#939FC3"/>
<path fill-rule="evenodd" clip-rule="evenodd" d="M26.0022 2.71289C24.2552 2.71289 22.9231 3.86803 22.0898 4.62814L21.5668 5.11419C21.3144 5.35134 21.0904 5.56185 20.8377 5.77763C20.4508 6.10799 20.1672 6.29511 19.9459 6.38711C19.6999 6.48925 19.3487 6.56257 18.8384 6.60797C18.491 6.63887 18.1597 6.65155 17.787 6.66581L17.1395 6.69333C16.0375 6.74848 14.2805 6.86473 13.0694 8.07587C11.8599 9.28707 11.7435 11.0447 11.6884 12.146L11.6609 12.7897C11.6466 13.1638 11.6338 13.4963 11.6027 13.8443C11.5571 14.3541 11.4831 14.7063 11.3808 14.9522C11.2888 15.173 11.1017 15.4565 10.7713 15.8434C10.5557 16.0959 10.3456 16.3195 10.1089 16.5715C9.95967 16.7303 9.79992 16.9003 9.62159 17.0959C8.86138 17.9296 7.70654 19.2621 7.70654 21.0089C7.70654 22.7559 8.86164 24.088 9.62174 24.9213C9.79952 25.1162 9.95889 25.2858 10.1078 25.4442C10.3449 25.6966 10.5554 25.9207 10.7712 26.1734C11.1016 26.5603 11.2883 26.843 11.3803 27.0643C11.4824 27.3103 11.5561 27.6625 11.6015 28.1728C11.6324 28.5201 11.6451 28.8515 11.6594 29.2242C11.6671 29.425 11.6752 29.6379 11.6869 29.8717C11.7421 30.9738 11.8591 32.7315 13.0702 33.9426C14.2814 35.1522 16.0382 35.2678 17.1395 35.3229C17.3718 35.3346 17.5834 35.3427 17.7832 35.3504C18.1573 35.3647 18.4897 35.3775 18.8377 35.4086C19.3476 35.4542 19.6995 35.5281 19.9454 35.6304C20.1662 35.7223 20.4498 35.9095 20.8368 36.24C21.0892 36.4556 21.3129 36.6657 21.5648 36.9024C21.7236 37.0516 21.8937 37.2114 22.0892 37.3897C22.9229 38.15 24.2554 39.3048 26.0022 39.3048C27.749 39.3048 29.0815 38.15 29.9151 37.3897C30.1107 37.2114 30.2807 37.0516 30.4396 36.9024C30.6915 36.6658 30.9151 36.4556 31.1676 36.24C31.5541 35.9099 31.8374 35.7228 32.0582 35.6307C32.3042 35.5287 32.6562 35.4551 33.166 35.4098C33.5133 35.3789 33.8447 35.3662 34.2174 35.3519C34.4182 35.3442 34.631 35.3361 34.8648 35.3244C35.9669 35.2692 37.7246 35.1522 38.9357 33.9411C40.1453 32.7299 40.2609 30.973 40.316 29.8717C40.3276 29.6394 40.3358 29.4278 40.3434 29.228C40.3578 28.8539 40.3706 28.5215 40.4017 28.1734C40.4473 27.6636 40.5212 27.3116 40.6235 27.0658C40.7154 26.8449 40.9025 26.5613 41.2331 26.1743C41.4487 25.9219 41.6588 25.6982 41.8955 25.4463C42.0447 25.2875 42.2045 25.1174 42.3828 24.9219C43.143 24.0882 44.2978 22.7557 44.2978 21.0089C44.2978 19.2619 43.1427 17.9298 42.3826 17.0964C42.2048 16.9015 42.0455 16.7319 41.8966 16.5735C41.6594 16.3211 41.4489 16.097 41.2332 15.8443C40.9028 15.4574 40.7157 15.1738 40.6237 14.9525C40.5218 14.7065 40.4482 14.3546 40.4028 13.845C40.3719 13.4976 40.3592 13.1662 40.345 12.7935C40.3373 12.5927 40.3292 12.3799 40.3175 12.146C40.2623 11.044 40.1453 9.28622 38.9342 8.07509C37.723 6.86552 35.9662 6.74989 34.8648 6.69478L34.2212 6.66736C33.8471 6.65299 33.5146 6.64022 33.1666 6.60911C32.6568 6.56354 32.3047 6.48954 32.0588 6.38726C31.838 6.29527 31.5545 6.10817 31.1676 5.77774C30.9151 5.56211 30.6915 5.35197 30.4395 5.11528C30.2807 4.96607 30.1107 4.80632 29.9151 4.62799C29.0815 3.86777 27.749 2.71289 26.0022 2.71289ZM22.9481 8.24914C22.4725 8.65534 21.8832 9.10126 21.1939 9.38792C20.4976 9.67698 19.7615 9.78865 19.1264 9.84515C18.699 9.88317 18.2247 9.90163 17.8047 9.91798C17.6244 9.925 17.4542 9.93162 17.302 9.93924C16.056 10.0016 15.5793 10.1626 15.368 10.3734C15.1575 10.5845 14.9967 11.0613 14.9343 12.3085C14.9267 12.46 14.9201 12.6293 14.9131 12.8084C14.8966 13.2292 14.8781 13.7047 14.8398 14.1336C14.783 14.769 14.6712 15.5044 14.3814 16.2008C14.0947 16.8895 13.6487 17.4786 13.2427 17.954C12.9849 18.2559 12.6742 18.5875 12.3975 18.8829C12.2609 19.0286 12.1326 19.1655 12.023 19.2857C11.1978 20.1907 10.9565 20.6648 10.9565 21.0089C10.9565 21.3527 11.1975 21.8263 12.0229 22.7311C12.1322 22.851 12.2601 22.9875 12.3963 23.1328C12.6733 23.4284 12.9844 23.7605 13.2428 24.063C13.649 24.5387 14.0949 25.128 14.3815 25.8173C14.6706 26.5136 14.7822 27.2497 14.8387 27.8848C14.8767 28.3122 14.8952 28.7865 14.9116 29.2065C14.9186 29.3868 14.9252 29.557 14.9328 29.7093C14.9952 30.9563 15.1565 31.4328 15.3675 31.6438C15.5785 31.8545 16.0543 32.0146 17.302 32.077C17.4535 32.0846 17.6227 32.0912 17.8019 32.0982C18.2227 32.1147 18.6982 32.1332 19.1271 32.1716C19.7625 32.2283 20.4978 32.3401 21.1943 32.63C21.8829 32.9167 22.4721 33.3627 22.9475 33.7687C23.2493 34.0265 23.5809 34.3372 23.8762 34.6139C24.022 34.7505 24.159 34.8788 24.2791 34.9883C25.1841 35.8136 25.6582 36.0549 26.0022 36.0549C26.3462 36.0549 26.8203 35.8136 27.7253 34.9883C27.8454 34.8788 27.9824 34.7505 28.1281 34.6139C28.4235 34.3372 28.7551 34.0265 29.0569 33.7687C29.5323 33.3627 30.1212 32.9167 30.8099 32.63C31.5062 32.341 32.2429 32.2291 32.878 32.1726C33.3053 32.1346 33.7797 32.1161 34.1997 32.0997C34.3799 32.0927 34.5502 32.0861 34.7024 32.0785C35.9484 32.0161 36.4251 31.8551 36.6364 31.6443C36.8469 31.4332 37.0077 30.9564 37.0701 29.7093C37.0777 29.5577 37.0843 29.3885 37.0913 29.2093C37.1077 28.7885 37.1263 28.313 37.1646 27.8841C37.2214 27.2487 37.3332 26.5134 37.623 25.8169C37.9097 25.1282 38.3557 24.5391 38.7617 24.0637C39.0195 23.7619 39.3302 23.4302 39.6069 23.1349C39.7435 22.9891 39.8718 22.8522 39.9813 22.732C40.8066 21.827 41.0479 21.3529 41.0479 21.0089C41.0479 20.665 40.8068 20.1915 39.9815 19.2866C39.8722 19.1667 39.7443 19.0302 39.6081 18.8849C39.3311 18.5893 39.0199 18.2573 38.7616 17.9547C38.3554 17.479 37.9095 16.8897 37.6229 16.2004C37.3338 15.5042 37.2221 14.768 37.1656 14.1329C37.1276 13.7056 37.1092 13.2312 37.0928 12.8112C37.0858 12.6309 37.0792 12.4607 37.0716 12.3085C37.0092 11.0624 36.8482 10.5857 36.6374 10.3744C36.4263 10.1639 35.9495 10.0031 34.7024 9.94069C34.5509 9.9331 34.3816 9.9265 34.2024 9.9195C33.7817 9.90307 33.3062 9.88451 32.8773 9.84617C32.2419 9.78938 31.5066 9.67761 30.8101 9.38777C30.1214 9.10106 29.5323 8.65506 29.0569 8.24903C28.7551 7.99125 28.4234 7.68053 28.1281 7.40381C27.9823 7.26724 27.8454 7.13895 27.7253 7.0294C26.8203 6.20413 26.3462 5.96286 26.0022 5.96286C25.6584 5.96286 25.1848 6.20387 24.28 7.02925C24.1601 7.13858 24.0236 7.26648 23.8783 7.40263C23.5827 7.67964 23.2507 7.9908 22.9481 8.24914Z" fill="#939FC3"/>
</svg>
