<svg width="44" height="34" viewBox="0 0 44 34" fill="none" xmlns="http://www.w3.org/2000/svg">
<path d="M3.58325 7.25C5.37818 7.25 6.83325 5.79493 6.83325 4C6.83325 2.20507 5.37818 0.75 3.58325 0.75C1.78833 0.75 0.333252 2.20507 0.333252 4C0.333252 5.79493 1.78833 7.25 3.58325 7.25Z" fill="#939FC3"/>
<path d="M16.0416 3.45833C16.0416 2.56087 16.7691 1.83333 17.6666 1.83333L41.5001 1.83334C42.3976 1.83334 43.1251 2.56087 43.1251 3.45834C43.1251 4.3558 42.3976 5.08334 41.5001 5.08334L17.6666 5.08333C16.7691 5.08333 16.0416 4.3558 16.0416 3.45833Z" fill="#939FC3"/>
<path d="M3.58325 20.25C5.37818 20.25 6.83325 18.7949 6.83325 17C6.83325 15.2051 5.37818 13.75 3.58325 13.75C1.78833 13.75 0.333252 15.2051 0.333252 17C0.333252 18.7949 1.78833 20.25 3.58325 20.25Z" fill="#939FC3"/>
<path d="M16.0416 17C16.0416 16.1025 16.7691 15.375 17.6666 15.375H41.5001C42.3976 15.375 43.1251 16.1025 43.1251 17C43.1251 17.8975 42.3976 18.625 41.5001 18.625H17.6666C16.7691 18.625 16.0416 17.8975 16.0416 17Z" fill="#939FC3"/>
<path d="M3.58325 33.25C5.37818 33.25 6.83325 31.7949 6.83325 30C6.83325 28.2051 5.37818 26.75 3.58325 26.75C1.78833 26.75 0.333252 28.2051 0.333252 30C0.333252 31.7949 1.78833 33.25 3.58325 33.25Z" fill="#939FC3"/>
<path d="M17.6666 28.9124C16.7691 28.9124 16.0416 29.64 16.0416 30.5374C16.0416 31.4349 16.7691 32.1624 17.6666 32.1624H41.5001C42.3976 32.1624 43.1251 31.4349 43.1251 30.5374C43.1251 29.64 42.3976 28.9124 41.5001 28.9124H17.6666Z" fill="#939FC3"/>
</svg>
