<svg width="52" height="52" viewBox="0 0 52 52" fill="none" xmlns="http://www.w3.org/2000/svg">
<path fill-rule="evenodd" clip-rule="evenodd" d="M19.4195 29.4759C19.9626 29.2517 20.5844 29.3382 21.0458 29.702L25.9957 33.6056L30.9455 29.702C31.4067 29.3383 32.0282 29.2518 32.5712 29.4756C34.6819 30.3457 36.5835 31.617 38.1791 33.1935C41.3287 36.3051 43.2987 40.615 43.2987 45.3762C43.2987 46.2737 42.5712 47.0013 41.6737 47.0013C40.7762 47.0013 40.0486 46.2737 40.0486 45.3762C40.0486 41.531 38.4609 38.0406 35.8949 35.5055C34.8144 34.4379 33.5618 33.5427 32.1837 32.8647L27.002 36.9512C26.4118 37.4166 25.5795 37.4166 24.9894 36.9512L19.8079 32.8649C18.4303 33.5431 17.1765 34.4383 16.0965 35.5054C13.5305 38.0405 11.9427 41.531 11.9427 45.3762C11.9427 46.2737 11.2152 47.0013 10.3177 47.0013C9.42018 47.0013 8.69263 46.2737 8.69263 45.3762C8.69263 40.615 10.6626 36.3051 13.8122 33.1935M19.4195 29.4759C17.312 30.3457 15.4081 31.6167 13.8122 33.1935L19.4195 29.4759Z" fill="#939FC3"/>
<path fill-rule="evenodd" clip-rule="evenodd" d="M22.3262 10.0388C21.347 11.0302 20.6014 12.6007 20.6014 14.8934C20.6014 17.1861 21.347 18.7566 22.3262 19.748C23.3192 20.7533 24.6496 21.2638 25.9963 21.2638C27.343 21.2638 28.6734 20.7533 29.6664 19.748C30.6456 18.7566 31.3913 17.1861 31.3913 14.8934C31.3913 12.6131 30.6466 11.0413 29.6653 10.0458C28.6703 9.03642 27.3394 8.52303 25.9963 8.52303C24.6496 8.52303 23.3192 9.03349 22.3262 10.0388ZM20.0139 7.75486C21.6534 6.09506 23.833 5.27295 25.9963 5.27295C28.1632 5.27295 30.3423 6.10296 31.9799 7.76416C33.6311 9.43924 34.6413 11.8651 34.6413 14.8934C34.6413 17.931 33.632 20.3582 31.9787 22.0319C30.3392 23.6917 28.1596 24.5138 25.9963 24.5138C23.833 24.5138 21.6534 23.6917 20.0139 22.0319C18.3606 20.3582 17.3513 17.931 17.3513 14.8934C17.3513 11.8558 18.3606 9.42864 20.0139 7.75486Z" fill="#939FC3"/>
</svg>
