<svg width="16" height="20" viewBox="0 0 16 20" fill="none" xmlns="http://www.w3.org/2000/svg">
<path fill-rule="evenodd" clip-rule="evenodd" d="M4.96235 11.6036C5.213 11.5001 5.49997 11.5401 5.71289 11.708L7.99733 13.5096L10.2818 11.708C10.4946 11.5401 10.7814 11.5002 11.032 11.6035C12.0061 12.0051 12.8838 12.5917 13.6202 13.3193C15.0738 14.7554 15.9829 16.7445 15.9829 18.9419C15.9829 19.3561 15.6472 19.6918 15.233 19.6918C14.8188 19.6918 14.483 19.3561 14.483 18.9419C14.483 17.1672 13.7502 15.5563 12.566 14.3864C12.0673 13.8936 11.4892 13.4805 10.8532 13.1676L8.46175 15.0536C8.18939 15.2684 7.80527 15.2684 7.53292 15.0536L5.1416 13.1677C4.5058 13.4807 3.92718 13.8938 3.42872 14.3863C2.24446 15.5563 1.51168 17.1672 1.51168 18.9419C1.51168 19.3561 1.1759 19.6918 0.7617 19.6918C0.347497 19.6918 0.0117188 19.3561 0.0117188 18.9419C0.0117188 16.7445 0.920881 14.7554 2.37446 13.3194M4.96235 11.6036C3.98968 12.005 3.11102 12.5916 2.37446 13.3194L4.96235 11.6036Z" fill="#003CA0"/>
<path fill-rule="evenodd" clip-rule="evenodd" d="M6.30382 2.63311C5.85189 3.09064 5.50777 3.81547 5.50777 4.87357C5.50777 5.93168 5.85189 6.65651 6.30382 7.11403C6.76211 7.57801 7.37609 7.81359 7.99763 7.81359C8.61916 7.81359 9.23315 7.57801 9.69144 7.11403C10.1434 6.65651 10.4875 5.93168 10.4875 4.87357C10.4875 3.82118 10.1438 3.09575 9.69091 2.63632C9.23171 2.17049 8.6175 1.93356 7.99763 1.93356C7.37609 1.93356 6.76211 2.16914 6.30382 2.63311ZM5.23667 1.57903C5.99331 0.81301 6.99925 0.433594 7.99763 0.433594C8.99767 0.433594 10.0034 0.816658 10.7591 1.58333C11.5212 2.3564 11.9874 3.47597 11.9874 4.87357C11.9874 6.27547 11.5216 7.39564 10.7586 8.16811C10.0019 8.93414 8.99601 9.31356 7.99763 9.31356C6.99924 9.31356 5.99331 8.93414 5.23667 8.16811C4.47366 7.39564 4.00781 6.27547 4.00781 4.87357C4.00781 3.47168 4.47366 2.35151 5.23667 1.57903Z" fill="#003CA0"/>
</svg>
