<svg width="36" height="44" viewBox="0 0 36 44" fill="none" xmlns="http://www.w3.org/2000/svg">
<path fill-rule="evenodd" clip-rule="evenodd" d="M17.7828 3.56776C15.7537 3.56776 14.0291 4.89003 13.4318 6.72426C13.214 7.39327 12.5903 7.84608 11.8867 7.84608H4.0338C3.73461 7.84608 3.49207 8.08861 3.49207 8.3878V37.4445C3.49207 38.9403 4.70466 40.1529 6.20047 40.1529H29.3954C30.8912 40.1529 32.1038 38.9403 32.1038 37.4445V8.3878C32.1038 8.08862 31.8613 7.84608 31.5621 7.84608H23.6789C22.9753 7.84608 22.3517 7.39327 22.1338 6.72426C21.5366 4.89003 19.812 3.56776 17.7828 3.56776ZM10.8067 4.59619C12.0993 2.05827 14.7362 0.317871 17.7828 0.317871C20.8295 0.317871 23.4664 2.05827 24.7589 4.59619H31.5621C33.6561 4.59619 35.3537 6.29375 35.3537 8.3878V37.4445C35.3537 40.7351 32.6861 43.4027 29.3954 43.4027H6.20047C2.9098 43.4027 0.242188 40.7351 0.242188 37.4445V8.3878C0.242188 6.29375 1.93975 4.59619 4.0338 4.59619H10.8067Z" fill="#939FC3"/>
<path fill-rule="evenodd" clip-rule="evenodd" d="M7.96088 17.2026C7.96088 16.3051 8.68842 15.5776 9.58588 15.5776H25.9882C26.8857 15.5776 27.6132 16.3051 27.6132 17.2026C27.6132 18.1 26.8857 18.8276 25.9882 18.8276H9.58588C8.68842 18.8276 7.96088 18.1 7.96088 17.2026Z" fill="#939FC3"/>
<path fill-rule="evenodd" clip-rule="evenodd" d="M7.96088 24.532C7.96088 23.6345 8.68842 22.907 9.58588 22.907H25.9882C26.8857 22.907 27.6132 23.6345 27.6132 24.532C27.6132 25.4295 26.8857 26.157 25.9882 26.157H9.58588C8.68842 26.157 7.96088 25.4295 7.96088 24.532Z" fill="#939FC3"/>
<path fill-rule="evenodd" clip-rule="evenodd" d="M7.96088 31.8614C7.96088 30.964 8.68842 30.2364 9.58588 30.2364H17.7786C18.6761 30.2364 19.4036 30.964 19.4036 31.8614C19.4036 32.7589 18.6761 33.4864 17.7786 33.4864H9.58588C8.68842 33.4864 7.96088 32.7589 7.96088 31.8614Z" fill="#939FC3"/>
</svg>
