<svg width="40" height="44" viewBox="0 0 40 44" fill="none" xmlns="http://www.w3.org/2000/svg">
<path fill-rule="evenodd" clip-rule="evenodd" d="M32.8333 43.6668C36.4231 43.6668 39.3333 40.7567 39.3333 37.1668V6.8335C39.3333 3.24365 36.4231 0.333496 32.8333 0.333496H6.83325C5.63663 0.333496 4.66659 1.30355 4.66659 2.50016V9.00016H0.333252V12.2502H4.66659V20.3752H0.333252V23.6252H4.66659V31.7502H0.333252V35.0002H4.66658V41.5002C4.66658 42.6968 5.63664 43.6668 6.83325 43.6668H32.8333ZM7.91658 40.4168H32.8333C34.6282 40.4168 36.0833 38.9618 36.0833 37.1668V6.8335C36.0833 5.03857 34.6282 3.5835 32.8333 3.5835L7.91659 3.5835L7.91658 40.4168Z" fill="#939FC3"/>
</svg>
